<?xml version="1.0" standalone="no"?>
  <!DOCTYPE svg PUBLIC "-//W3C//DTD SVG 1.1//EN" "http://www.w3.org/Graphics/SVG/1.1/DTD/svg11.dtd" >
  <svg>
  <metadata>
  Created by font-carrier
  </metadata>
  <defs>
  <font id="CaviarDreams" horiz-adv-x="3072" vert-adv-y="3072" >
    <font-face
      
      font-family="Caviar Dreams"
      
      font-weight="400"
      
      font-stretch="normal"
      
      units-per-em="2048"
      
      ascent="2005"
      
      descent="-375"
      
    />
      <missing-glyph />

      

      
      <glyph glyph-name="uni21" unicode="&#x21;" d="M215 165Q252 165 278.50 139Q305 113 305 76Q305 38 278.50 12Q252-14 215-14Q178-14 151.50 12Q125 38 125 76Q125 113 151.50 139Q178 165 215 165M258 1600L258 276L168 276L168 1600L258 1600Z"  horiz-adv-x="430" vert-adv-y="2048"  />

      
      <glyph glyph-name="uni22" unicode="&#x22;" d="M125 997L125 1597L215 1597L215 997L125 997M360 997L360 1597L450 1597L450 997L360 997Z"  horiz-adv-x="575" vert-adv-y="2048"  />

      
      <glyph glyph-name="uni23" unicode="&#x23;" d="M763 985L993 985L1104 1430L1194 1430L1083 985L1528 985L1505 895L1060 895L1003 665L1448 665L1425 575L980 575L869 130L779 130L890 575L660 575L549 130L459 130L570 575L125 575L148 665L593 665L650 895L205 895L228 985L673 985L784 1430L874 1430L763 985M970 895L740 895L683 665L913 665L970 895Z"  horiz-adv-x="1653" vert-adv-y="2048"  />

      
      <glyph glyph-name="uni24" unicode="&#x24;" d="M556 856L556 189Q656 204 732 280Q826 374 826 508Q826 641 732 735Q658 809 556 856M466 1413Q404 1403 358 1356Q297 1296 297 1210Q297 1124 357 1064Q399 1022 466 985L466 1413M466 891Q362 936 296 1003Q210 1088 210 1210Q210 1329 296 1415Q368 1488 466 1499L466 1662L556 1662L556 1497Q644 1482 711 1416Q758 1370 778 1308L700 1277Q683 1323 649 1357Q608 1397 556 1410L556 946Q693 893 792 795Q911 676 911 508Q911 338 792 219Q691 118 556 102L556-38L466-38L466 101Q322 112 215 219Q120 315 100 445L182 475Q194 360 276 279Q357 198 466 187L466 891Z"  horiz-adv-x="1011" vert-adv-y="2048"  />

      
      <glyph glyph-name="uni25" unicode="&#x25;" d="M1107 1314L189 3L115 54L1033 1365L1107 1314M311 1215Q407 1215 474.50 1147.50Q542 1080 542 984Q542 888 474.50 820.50Q407 753 311 753Q215 753 147.50 820.50Q80 888 80 984Q80 1080 147.50 1147.50Q215 1215 311 1215M311 1128Q251 1128 209 1086Q167 1044 167 984Q167 924 209 882Q251 840 311 840Q370 840 412.50 882Q455 924 455 984Q455 1044 412.50 1086Q370 1128 311 1128M911 615Q1007 615 1074.50 547.50Q1142 480 1142 384Q1142 288 1074.50 220.50Q1007 153 911 153Q815 153 747.50 220.50Q680 288 680 384Q680 480 747.50 547.50Q815 615 911 615M911 528Q851 528 809 486Q767 444 767 384Q767 324 809 282Q851 240 911 240Q970 240 1012.50 282Q1055 324 1055 384Q1055 444 1012.50 486Q970 528 911 528Z"  horiz-adv-x="1221" vert-adv-y="2048"  />

      
      <glyph glyph-name="uni26" unicode="&#x26;" d="M915 331Q902 336 890 343Q842 370 770 445Q722 489 702 500Q680 512 658 512Q645 512 633 509Q597 499 579 467Q566 445 566 423Q566 411 570 398Q580 362 609 346Q628 336 661 336Q679 336 702 339L693 257Q668 250 643 250Q603 250 565 271Q505 304 486 375Q479 400 479 423Q479 467 503 509Q540 573 610 592Q635 599 659 599Q703 599 744 575Q784 553 848 486Q906 433 933 418Q963 401 995 401Q1013 401 1031 406Q1083 420 1110 467Q1127 498 1127 530Q1127 547 1122 565Q1108 616 1062 643Q1034 659 999 659Q974 659 945 651L944 740Q972 748 1000 748Q1053 748 1104 719Q1182 675 1206 588Q1214 558 1214 530Q1214 475 1185 425Q1141 347 1053 323Q1027 316 1003 315Q970 207 884 121Q745-19 549-19Q353-19 214 120Q75 259 75 456Q75 652 212 798Q306 899 456 949Q384 980 308.50 1060.50Q233 1141 233 1282Q233 1420 332 1519.50Q431 1619 572 1619Q712 1619 812 1520Q867 1467 888 1401L807 1369Q789 1418 748 1459Q675 1531 572 1531Q469 1531 396 1458.50Q323 1386 323 1282Q323 1179 393.50 1104Q464 1029 524 1006Q584 983 674 982L674 898L602 896Q383 855 273 735Q163 615 163 456Q163 296 276 183Q389 70 549 70Q708 70 821 183Q887 249 915 331Z"  horiz-adv-x="1304" vert-adv-y="2048"  />

      
      <glyph glyph-name="uni27" unicode="&#x27;" d="M125 997L125 1597L215 1597L215 997L125 997Z"  horiz-adv-x="340" vert-adv-y="2048"  />

      
      <glyph glyph-name="uni28" unicode="&#x28;" d="M603 1628Q468 1566 359 1429Q178 1201 178 800Q178 398 359 170Q468 33 603-32L603-117Q435-59 304 106Q100 360 100 800Q100 1239 304 1494Q435 1659 603 1717L603 1628Z"  horiz-adv-x="703" vert-adv-y="2048"  />

      
      <glyph glyph-name="uni29" unicode="&#x29;" d="M100 1717Q268 1659 399 1494Q603 1239 603 800Q603 360 399 106Q268-59 100-117L100-32Q235 33 344 170Q525 398 525 800Q525 1201 344 1429Q235 1566 100 1628L100 1717Z"  horiz-adv-x="703" vert-adv-y="2048"  />

      
      <glyph glyph-name="uni2a" unicode="&#x2a;" d="M445 1384L619 1506L671 1432L478 1297L671 1162L619 1088L445 1210L445 997L355 997L355 1211L180 1088L128 1162L321 1297L128 1432L180 1506L355 1383L355 1597L445 1597L445 1384Z"  horiz-adv-x="800" vert-adv-y="2048"  />

      
      <glyph glyph-name="uni2b" unicode="&#x2b;" d="M480 547L125 547L125 637L480 637L480 992L570 992L570 637L925 637L925 547L570 547L570 192L480 192L480 547Z"  horiz-adv-x="1050" vert-adv-y="2048"  />

      
      <glyph glyph-name="uni2c" unicode="&#x2c;" d="M279 166L94-219L10-219L113 166L279 166Z"  horiz-adv-x="379" vert-adv-y="2048"  />

      
      <glyph glyph-name="uni2d" unicode="&#x2d;" d="M125 637L715 637L715 547L125 547L125 637Z"  horiz-adv-x="840" vert-adv-y="2048"  />

      
      <glyph glyph-name="uniad" unicode="&#xad;" d="M125 637L715 637L715 547L125 547L125 637Z"  horiz-adv-x="840" vert-adv-y="2048"  />

      
      <glyph glyph-name="uni2e" unicode="&#x2e;" d="M190 165Q227 165 253.50 139Q280 113 280 76Q280 38 253.50 12Q227-14 190-14Q153-14 126.50 12Q100 38 100 76Q100 113 126.50 139Q153 165 190 165Z"  horiz-adv-x="380" vert-adv-y="2048"  />

      
      <glyph glyph-name="uni2f" unicode="&#x2f;" d="M674 1600L777 1600L52 0L-50 0L674 1600Z"  horiz-adv-x="727" vert-adv-y="2048"  />

      
      <glyph glyph-name="uni30" unicode="&#x30;" d="M1079 1051Q1079 1239 946 1371.50Q813 1504 625 1504Q437 1504 304 1371.50Q171 1239 171 1051L171 521Q171 333 304 200.50Q437 68 625 68Q813 68 946 200.50Q1079 333 1079 521L1079 1051M1174 521Q1174 294 1013.50 133Q853-28 625-28Q398-28 237 133Q76 294 76 521L76 1051Q76 1278 237 1439Q398 1600 625 1600Q853 1600 1013.50 1439Q1174 1278 1174 1051L1174 521Z"  horiz-adv-x="1250" vert-adv-y="2048"  />

      
      <glyph glyph-name="uni31" unicode="&#x31;" d="M717 1600L717 0L627 0L627 1442L532 1442L655 1600L717 1600Z"  horiz-adv-x="1250" vert-adv-y="2048"  />

      
      <glyph glyph-name="uni32" unicode="&#x32;" d="M156 0Q202 310 367.50 433.50Q533 557 660 652.50Q787 748 896 867Q1005 986 1005 1144Q1005 1303 893 1415Q781 1527 622 1527Q465 1527 352 1415Q256 1319 242 1186L151 1219Q174 1369 285 1481Q425 1622 622 1622Q820 1622 959.50 1482Q1099 1342 1099 1144Q1099 947 962 800Q869 699 742 604Q615 509 456 390Q297 271 258 90L1099 90L1099 0L156 0Z"  horiz-adv-x="1250" vert-adv-y="2048"  />

      
      <glyph glyph-name="uni33" unicode="&#x33;" d="M569 893L494 895L494 985Q587 986 646.50 1009Q706 1032 775.50 1106Q845 1180 845 1282Q845 1385 773 1456.50Q701 1528 599 1528Q498 1528 425 1457Q385 1416 366 1365L280 1399Q302 1469 357 1522Q458 1622 599 1622Q742 1622 841.50 1521.50Q941 1421 941 1282Q941 1140 865 1058.50Q789 977 723 950Q867 902 962 800Q1099 653 1099 456Q1099 258 959.50 118Q820-22 622-22Q425-22 285 119Q174 231 151 381L242 414Q256 281 352 185Q465 73 622 73Q781 73 893 185Q1005 297 1005 456Q1005 614 896 733Q787 852 569 893Z"  horiz-adv-x="1250" vert-adv-y="2048"  />

      
      <glyph glyph-name="uni34" unicode="&#x34;" d="M833 1600L923 1600L923 558L1076 558L1076 468L923 468L923 0L833 0L833 468L173 468L833 1600M833 1406L328 558L833 558L833 1406Z"  horiz-adv-x="1250" vert-adv-y="2048"  />

      
      <glyph glyph-name="uni35" unicode="&#x35;" d="M282 1103Q332 1119 394 1133Q458 1144 518 1144Q628 1144 729 1109Q955 1032 1065 825Q1134 696 1134 561Q1134 477 1108 392Q1039 167 832 56Q706-11 572-11Q487-11 399 16Q219 71 117 210L181 281Q266 155 427 106Q499 84 569 84Q681 84 787 140Q960 232 1018 420Q1040 492 1040 562Q1040 674 983 781Q891 953 703 1019Q622 1047 525 1047Q398 1047 243 998L171 1061L355 1568L355 1600L855 1600L855 1510L430 1510L282 1103Z"  horiz-adv-x="1250" vert-adv-y="2048"  />

      
      <glyph glyph-name="uni36" unicode="&#x36;" d="M307 842Q307 842 240.50 775.50Q174 709 174 521Q174 333 307 200.50Q440 68 628 68Q816 68 949 200.50Q1082 333 1082 521Q1082 709 949 842Q816 975 628 975Q440 975 307 842M272 940Q423 1071 628 1071Q856 1071 1016.50 910Q1177 749 1177 521Q1177 294 1016.50 133Q856-28 628-28Q401-28 240 133Q85 288 79 504L73 504Q83 857 243 1081Q403 1305 639 1569Q653 1585 666 1600L790 1600Q770 1575 748 1550Q485 1256 331 1037Q298 991 272 940Z"  horiz-adv-x="1250" vert-adv-y="2048"  />

      
      <glyph glyph-name="uni37" unicode="&#x37;" d="M1096 1600Q1090 1340 827.50 1046Q565 752 411 533Q257 314 247 0L153 0Q163 353 323 577Q483 801 719 1065Q955 1329 994 1510L153 1510L153 1600L1096 1600Z"  horiz-adv-x="1250" vert-adv-y="2048"  />

      
      <glyph glyph-name="uni38" unicode="&#x38;" d="M624 75L626 75Q646 73 666 73Q825 73 937 185Q1049 297 1049 456Q1049 614 940 733Q834 849 625 891Q416 849 310 733Q201 614 201 456Q201 297 313 185Q425 73 584 73Q604 73 624 75M625-20Q605-22 584-22Q386-22 246.50 118Q107 258 107 456Q107 653 244 800Q339 902 483 950Q417 977 341 1058.50Q265 1140 265 1282Q265 1421 364.50 1521.50Q464 1622 607 1622L643 1622Q786 1622 885.50 1521.50Q985 1421 985 1282Q985 1140 909 1058.50Q833 977 767 950Q911 902 1006 800Q1143 653 1143 456Q1143 258 1003.50 118Q864-22 666-22Q646-22 625-20M624 1527Q616 1528 607 1528Q505 1528 433 1456.50Q361 1385 361 1282Q361 1180 430.50 1106Q500 1032 559 1009Q589 998 625 992Q661 998 691 1009Q750 1032 819.50 1106Q889 1180 889 1282Q889 1385 817 1456.50Q745 1528 643 1528Q634 1528 626 1527L624 1527Z"  horiz-adv-x="1250" vert-adv-y="2048"  />

      
      <glyph glyph-name="uni39" unicode="&#x39;" d="M943 730Q943 730 1009.50 796.50Q1076 863 1076 1051Q1076 1239 943 1371.50Q810 1504 622 1504Q434 1504 301 1371.50Q168 1239 168 1051Q168 863 301 730Q434 597 622 597Q810 597 943 730M978 632Q827 501 622 501Q394 501 233.50 662Q73 823 73 1051Q73 1278 233.50 1439Q394 1600 622 1600Q849 1600 1010 1439Q1165 1284 1171 1068L1177 1068Q1167 715 1007 491Q847 267 611 3Q597-13 584-28L460-28Q480-3 502 22Q765 316 919 535Q952 581 978 632Z"  horiz-adv-x="1250" vert-adv-y="2048"  />

      
      <glyph glyph-name="uni3a" unicode="&#x3a;" d="M215 165Q252 165 278.50 139Q305 113 305 76Q305 38 278.50 12Q252-14 215-14Q178-14 151.50 12Q125 38 125 76Q125 113 151.50 139Q178 165 215 165M215 782Q252 782 278.50 756Q305 730 305 693Q305 655 278.50 629Q252 603 215 603Q178 603 151.50 629Q125 655 125 693Q125 730 151.50 756Q178 782 215 782Z"  horiz-adv-x="430" vert-adv-y="2048"  />

      
      <glyph glyph-name="uni3b" unicode="&#x3b;" d="M352 166L167-219L83-219L186 166L352 166M215 782Q252 782 278.50 756Q305 730 305 693Q305 655 278.50 629Q252 603 215 603Q178 603 151.50 629Q125 655 125 693Q125 730 151.50 756Q178 782 215 782Z"  horiz-adv-x="477" vert-adv-y="2048"  />

      
      <glyph glyph-name="uni037E" unicode="&#x037E;" d="M352 166L167-219L83-219L186 166L352 166M215 782Q252 782 278.50 756Q305 730 305 693Q305 655 278.50 629Q252 603 215 603Q178 603 151.50 629Q125 655 125 693Q125 730 151.50 756Q178 782 215 782Z"  horiz-adv-x="477" vert-adv-y="2048"  />

      
      <glyph glyph-name="uni3c" unicode="&#x3c;" d="M1249 145L100 563L1249 981L1249 885L363 563L1249 241L1249 145Z"  horiz-adv-x="1349" vert-adv-y="2048"  />

      
      <glyph glyph-name="uni3d" unicode="&#x3d;" d="M125 797L925 797L925 707L125 707L125 797M125 477L925 477L925 387L125 387L125 477Z"  horiz-adv-x="1050" vert-adv-y="2048"  />

      
      <glyph glyph-name="uni3e" unicode="&#x3e;" d="M100 241L986 563L100 885L100 981L1249 563L100 145L100 241Z"  horiz-adv-x="1349" vert-adv-y="2048"  />

      
      <glyph glyph-name="uni3f" unicode="&#x3f;" d="M567 818Q450 715 390 589Q350 507 350 423Q350 359 373 294L290 265Q262 345 262 423Q262 527 311 627Q391 794 552 916Q647 1008 688 1094Q714 1147 714 1202Q714 1243 700 1284Q665 1382 572 1427Q519 1452 465 1452Q424 1452 382 1437Q285 1403 240 1311Q215 1259 215 1206L127 1210L127 1218Q127 1283 159 1347Q221 1474 353 1520Q411 1540 467 1540Q541 1540 613 1506Q739 1445 785 1314Q805 1257 805 1201Q805 1127 770 1055Q709 928 567 818M326 165Q363 165 389.50 139Q416 113 416 76Q416 38 389.50 12Q363-14 326-14Q289-14 262.50 12Q236 38 236 76Q236 113 262.50 139Q289 165 326 165Z"  horiz-adv-x="956" vert-adv-y="2048"  />

      
      <glyph glyph-name="uni40" unicode="&#x40;" d="M1088 483L1088 615Q1071 690 1014 747Q932 830 816 830Q700 830 618.50 747.50Q537 665 537 548Q537 433 618.50 351Q700 269 816 269Q932 269 1014 351Q1071 408 1088 483M1086 313Q965 186 814 186Q664 186 557 293Q450 400 450 548Q450 699 557 806Q664 913 814 913Q965 913 1086 786L1086 900L1167 900L1167 252Q1185 209 1222 209Q1266 209 1344 319.50Q1422 430 1422 547Q1422 798 1243.50 976.50Q1065 1155 814 1155Q563 1155 385.50 976.50Q208 798 208 547Q208 296 385.50 118.50Q563-59 814-59Q986-59 1065-10L1122-70Q1002-140 814-140Q530-140 327.50 62Q125 264 125 547Q125 831 327.50 1033.50Q530 1236 814 1236Q1099 1236 1300 1033.50Q1501 831 1501 547Q1501 420 1408.50 275Q1316 130 1204 130Q1191 130 1179 132Q1093 150 1086 232L1086 313Z"  horiz-adv-x="1626" vert-adv-y="2048"  />

      
      <glyph glyph-name="uni41" unicode="&#x41;" d="M890 703L646 1374L402 703L890 703M923 613L369 613L146 0L50 0L646 1637L1241 0L1146 0L923 613Z"  horiz-adv-x="1291" vert-adv-y="2048"  />

      
      <glyph glyph-name="uni42" unicode="&#x42;" d="M434 1600Q557 1600 644.50 1513Q732 1426 732 1303Q732 1179 605 1072Q717 1049 816 940Q976 779 976 551Q976 324 816 158Q667 4 460 1L460 0L150 0L150 1600L434 1600M240 1005L240 90L460 90L460 89Q627 100 748 226Q881 363 881 551Q881 739 748 872Q615 1005 427 1005L240 1005M240 1510L240 1101L457 1101Q532 1108 585 1157Q646 1213 646 1303Q646 1393 585 1451.50Q524 1510 434 1510L240 1510Z"  horiz-adv-x="1066" vert-adv-y="2048"  />

      
      <glyph glyph-name="uni43" unicode="&#x43;" d="M1427 255L1495 194Q1261-19 944-19Q604-19 364.50 220.50Q125 460 125 800Q125 1139 364.50 1379Q604 1619 944 1619Q1261 1619 1495 1406L1427 1344Q1221 1527 944 1527Q643 1527 430 1314Q217 1101 217 800Q217 498 430 285Q643 72 944 72Q1221 72 1427 255Z"  horiz-adv-x="1595" vert-adv-y="2048"  />

      
      <glyph glyph-name="uni44" unicode="&#x44;" d="M240 1506L240 93L247 93Q603 93 794 285Q1007 498 1007 800Q1007 1101 794 1315Q603 1506 247 1506L240 1506M240 1598L247 1598Q642 1598 859 1380Q1099 1139 1099 800Q1099 460 859 220Q642 2 247 2L240 2L240 0L150 0L150 1600L240 1600L240 1598Z"  horiz-adv-x="1199" vert-adv-y="2048"  />

      
      <glyph glyph-name="uni45" unicode="&#x45;" d="M950 1600L950 1510L240 1510L240 845L950 845L950 755L240 755L240 90L950 90L950 0L150 0L150 1600L950 1600Z"  horiz-adv-x="1075" vert-adv-y="2048"  />

      
      <glyph glyph-name="uni46" unicode="&#x46;" d="M850 1600L850 1510L240 1510L240 845L850 845L850 755L240 755L240 0L150 0L150 1600L850 1600Z"  horiz-adv-x="975" vert-adv-y="2048"  />

      
      <glyph glyph-name="uni47" unicode="&#x47;" d="M1489 199Q1261-19 944-19Q604-19 364.50 220.50Q125 460 125 800Q125 1139 364.50 1379Q604 1619 944 1619Q1261 1619 1495 1406L1427 1344Q1221 1527 944 1527Q643 1527 430 1314Q217 1101 217 800Q217 498 430 285Q643 72 944 72Q1202 72 1399 231L1399 719L1489 719L1489 199Z"  horiz-adv-x="1620" vert-adv-y="2048"  />

      
      <glyph glyph-name="uni48" unicode="&#x48;" d="M240 717L240 0L150 0L150 1600L240 1600L240 807L910 807L910 1600L1000 1600L1000 0L910 0L910 717L240 717Z"  horiz-adv-x="1150" vert-adv-y="2048"  />

      
      <glyph glyph-name="uni49" unicode="&#x49;" d="M260 1600L260 0L170 0L170 1600L260 1600Z"  horiz-adv-x="430" vert-adv-y="2048"  />

      
      <glyph glyph-name="uni4a" unicode="&#x4a;" d="M702 304Q702 152 622 72Q537-14 416-14Q295-14 210 71.50Q125 157 125 259L184 282Q204 174 269 120Q323 74 391 74Q403 74 416 76Q499 76 559 135Q612 188 612 314L612 1600L702 1600L702 304Z"  horiz-adv-x="857" vert-adv-y="2048"  />

      
      <glyph glyph-name="uni4b" unicode="&#x4b;" d="M240 775L240 0L150 0L150 1600L240 1600L240 919L751 1600L867 1600L387 956L1007 0L896 0L328 884L240 775Z"  horiz-adv-x="1097" vert-adv-y="2048"  />

      
      <glyph glyph-name="uni4c" unicode="&#x4c;" d="M150 0L150 1600L240 1600L240 90L860 90L860 0L150 0Z"  horiz-adv-x="950" vert-adv-y="2048"  />

      
      <glyph glyph-name="uni4d" unicode="&#x4d;" d="M253 1600L854 560L1454 1600L1557 1600L1553 1593L1553 0L1463 0L1463 1437L854 383L244 1437L244 0L154 0L154 1593L150 1600L253 1600Z"  horiz-adv-x="1707" vert-adv-y="2048"  />

      
      <glyph glyph-name="uni4e" unicode="&#x4e;" d="M150 1600L249 1600L1071 177L1071 1600L1161 1600L1161 0L1071 0L240 1437L240 0L150 0L150 1600Z"  horiz-adv-x="1311" vert-adv-y="2048"  />

      
      <glyph glyph-name="uni4f" unicode="&#x4f;" d="M946 1623Q1286 1623 1526.50 1382.50Q1767 1142 1767 802Q1767 462 1526.50 221.50Q1286-19 946-19Q606-19 365.50 221.50Q125 462 125 802Q125 1142 365.50 1382.50Q606 1623 946 1623M946 1531Q644 1531 430.50 1317.50Q217 1104 217 802Q217 500 430.50 286Q644 72 946 72Q1248 72 1461.50 286Q1675 500 1675 802Q1675 1104 1461.50 1317.50Q1248 1531 946 1531Z"  horiz-adv-x="1892" vert-adv-y="2048"  />

      
      <glyph glyph-name="uni50" unicode="&#x50;" d="M240 555L240 0L150 0L150 1600L570 1600Q753 1575 881 1447Q1034 1294 1034 1078Q1034 861 881 708Q728 555 512 555L240 555M240 1509L240 646L512 646Q690 646 816.50 772.50Q943 899 943 1078Q943 1257 816.50 1383Q690 1509 512 1509L240 1509Z"  horiz-adv-x="1089" vert-adv-y="2048"  />

      
      <glyph glyph-name="uni51" unicode="&#x51;" d="M946 1531Q644 1531 430.50 1317.50Q217 1104 217 802Q217 500 430.50 286Q644 72 946 72Q1248 72 1461.50 286Q1675 500 1675 802Q1675 1104 1461.50 1317.50Q1248 1531 946 1531M937-19Q603-16 366 222Q125 462 125 802Q125 1142 365.50 1382.50Q606 1623 946 1623Q1286 1623 1526.50 1382.50Q1767 1142 1767 802Q1767 462 1527 222Q1353 48 1128 0Q1133-2 1138-3Q1211-23 1335-101Q1419-146 1453-156Q1474-162 1494-162Q1530-162 1564-143Q1617-113 1633-55Q1638-39 1639-23L1730-23Q1728-50 1720-78Q1693-172 1608-220Q1554-251 1496-251Q1463-251 1429-241Q1369-225 1259-155Q1157-101 1114-89Q1085-81 1057-81Q1007-81 961-107Q887-149 865-230Q861-242 860-254L769-254Q771-230 778-205Q811-89 917-29Q927-24 937-19Z"  horiz-adv-x="1892" vert-adv-y="2048"  />

      
      <glyph glyph-name="uni52" unicode="&#x52;" d="M240 1509L240 646L512 646Q690 646 816.50 772.50Q943 899 943 1078Q943 1257 816.50 1383Q690 1509 512 1509L240 1509M539 556Q526 555 512 555L240 555L240 0L150 0L150 1600L570 1600Q753 1575 881 1447Q1034 1294 1034 1078Q1034 861 881 708Q775 602 638 569L1007 0L896 0L539 556Z"  horiz-adv-x="1089" vert-adv-y="2048"  />

      
      <glyph glyph-name="uni53" unicode="&#x53;" d="M548 886Q377 943 278 1042Q179 1141 179 1282Q179 1420 278 1519.50Q377 1619 518 1619Q658 1619 758 1520Q813 1467 834 1401L753 1369Q735 1418 694 1459Q621 1531 518 1531Q415 1531 342 1458.50Q269 1386 269 1282Q269 1179 342 1106Q410 1039 530 983Q722 921 853 790Q992 652 992 456Q992 259 853 120Q714-19 518-19Q322-19 183 121Q72 232 50 379L135 410Q149 280 246 183Q359 70 518 70Q678 70 791 183Q904 296 904 456Q904 615 791 728Q692 827 548 886Z"  horiz-adv-x="1042" vert-adv-y="2048"  />

      
      <glyph glyph-name="uni54" unicode="&#x54;" d="M545 1510L545 0L455 0L455 1510L50 1510L50 1600L950 1600L950 1510L545 1510Z"  horiz-adv-x="1000" vert-adv-y="2048"  />

      
      <glyph glyph-name="uni55" unicode="&#x55;" d="M1104 1600L1195 1600L1195 450Q1170 267 1042 139Q889-14 673-14Q456-14 303 139Q150 292 150 508L150 1600L241 1600L241 508Q241 330 367.50 203.50Q494 77 673 77Q852 77 978 203.50Q1104 330 1104 508L1104 1600Z"  horiz-adv-x="1345" vert-adv-y="2048"  />

      
      <glyph glyph-name="uni56" unicode="&#x56;" d="M145 1600L645 226L1145 1600L1241 1600L645-37L50 1600L145 1600Z"  horiz-adv-x="1291" vert-adv-y="2048"  />

      
      <glyph glyph-name="uni57" unicode="&#x57;" d="M791 240L791 1600L881 1600L881 240Q904 197 938 163Q1028 76 1152 76Q1276 76 1366.50 164.50Q1457 253 1457 378L1457 1600L1547 1600L1547 370Q1544 214 1432 102Q1316-14 1152-14Q989-14 873 101Q852 121 836 142Q820 121 799 101Q683-14 520-14Q356-14 241 102Q128 214 125 370L125 1600L215 1600L215 378Q215 253 305.50 164.50Q396 76 520 76Q644 76 734 163Q768 197 791 240Z"  horiz-adv-x="1672" vert-adv-y="2048"  />

      
      <glyph glyph-name="uni58" unicode="&#x58;" d="M50 0L557 879L141 1600L244 1600L608 968L974 1600L1077 1600L659 879L1168 0L1065 0L608 790L152 0L50 0Z"  horiz-adv-x="1218" vert-adv-y="2048"  />

      
      <glyph glyph-name="uni59" unicode="&#x59;" d="M600 647L50 1600L153 1600L645 747L1138 1600L1241 1600L690 647L690 0L600 0L600 647Z"  horiz-adv-x="1291" vert-adv-y="2048"  />

      
      <glyph glyph-name="uni5a" unicode="&#x5a;" d="M1022 1510L150 1510L150 1600L1177 1600L304 90L1177 90L1177 0L150 0L1022 1510Z"  horiz-adv-x="1327" vert-adv-y="2048"  />

      
      <glyph glyph-name="uni5b" unicode="&#x5b;" d="M215-285L435-285L435-375L125-375L125 1600L435 1600L435 1510L215 1510L215-285Z"  horiz-adv-x="560" vert-adv-y="2048"  />

      
      <glyph glyph-name="uni5c" unicode="&#x5c;" d="M777 0L675 0L-50 1600L53 1600L777 0Z"  horiz-adv-x="727" vert-adv-y="2048"  />

      
      <glyph glyph-name="uni5d" unicode="&#x5d;" d="M345 1510L125 1510L125 1600L435 1600L435-375L125-375L125-285L345-285L345 1510Z"  horiz-adv-x="560" vert-adv-y="2048"  />

      
      <glyph glyph-name="uni5e" unicode="&#x5e;" d="M513 1600L821 1066L717 1066L461 1509L205 1066L100 1066L409 1600L513 1600Z"  horiz-adv-x="921" vert-adv-y="2048"  />

      
      <glyph glyph-name="uni5f" unicode="&#x5f;" d="M25-30L1025-30L1025-120L25-120L25-30Z"  horiz-adv-x="1050" vert-adv-y="2048"  />

      
      <glyph glyph-name="uni60" unicode="&#x60;" d="M316 1387L479 1200L395 1200L150 1387L316 1387Z"  horiz-adv-x="629" vert-adv-y="2048"  />

      
      <glyph glyph-name="uni61" unicode="&#x61;" d="M1210 0L1120 0L1120 200Q1094 165 1063 133Q902-28 674-28Q447-28 286 133Q125 294 125 521Q125 749 286 910Q447 1071 674 1071Q902 1071 1063 910Q1094 878 1120 843L1120 982L1210 982L1210 0M1120 432L1120 610Q1095 742 995 842Q862 975 674 975Q486 975 353 842Q220 709 220 521Q220 333 353 200.50Q486 68 674 68Q862 68 995 201Q1095 301 1120 432Z"  horiz-adv-x="1360" vert-adv-y="2048"  />

      
      <glyph glyph-name="uni62" unicode="&#x62;" d="M150 1600L240 1600L240 844Q265 878 297 910Q458 1071 685 1071Q913 1071 1073.50 910Q1234 749 1234 521Q1234 294 1073.50 133Q913-28 685-28Q458-28 297 133Q265 165 240 199L240 0L150 0L150 1600M240 615L240 427Q266 299 364 201Q497 68 685 68Q873 68 1006 200.50Q1139 333 1139 521Q1139 709 1006 842Q873 975 685 975Q497 975 364 842Q266 744 240 615Z"  horiz-adv-x="1359" vert-adv-y="2048"  />

      
      <glyph glyph-name="uni63" unicode="&#x63;" d="M992 236L1087 202Q1061 166 1028 133Q867-28 639-28Q412-28 251 133Q90 294 90 522Q90 749 251 910Q412 1071 639 1071Q867 1071 1028 910Q1061 877 1087 842L992 807Q977 825 960 843Q827 975 639 975Q452 975 319 842.50Q186 710 186 522Q186 334 319 201Q452 68 639 68Q827 68 960 201Q977 218 992 236Z"  horiz-adv-x="1177" vert-adv-y="2048"  />

      
      <glyph glyph-name="uni64" unicode="&#x64;" d="M1210 0L1120 0L1120 200Q1094 165 1063 133Q902-28 674-28Q447-28 286 133Q125 294 125 521Q125 749 286 910Q447 1071 674 1071Q902 1071 1063 910Q1094 878 1120 843L1120 1600L1210 1600L1210 0M1120 432L1120 610Q1095 742 995 842Q862 975 674 975Q486 975 353 842Q220 709 220 521Q220 333 353 200.50Q486 68 674 68Q862 68 995 201Q1095 301 1120 432Z"  horiz-adv-x="1360" vert-adv-y="2048"  />

      
      <glyph glyph-name="uni65" unicode="&#x65;" d="M337 184Q464 68 639 68Q827 68 960 201Q977 218 992 236L1087 202Q1061 166 1028 133Q867-28 639-28Q412-28 251 133Q90 294 90 522Q90 749 251 910Q412 1071 639 1071Q834 1071 980 954Q1004 934 1028 910Q1037 901 1045 892L977 824L337 184M911 885Q794 975 639 975Q452 975 319 842.50Q186 710 186 522Q186 367 276 250L911 885Z"  horiz-adv-x="1177" vert-adv-y="2048"  />

      
      <glyph glyph-name="uni66" unicode="&#x66;" d="M280 892L280 0L190 0L190 892L90 892L90 982L190 982L190 1248Q196 1359 275 1439Q357 1515 464 1515Q520 1515 582 1494L554 1414Q512 1432 473 1432Q402 1432 339 1375Q283 1320 280 1242L280 982L480 982L480 892L280 892Z"  horiz-adv-x="523" vert-adv-y="2048"  />

      
      <glyph glyph-name="uni67" unicode="&#x67;" d="M1119 615Q1093 744 995 842Q862 975 674 975Q486 975 353 842Q220 709 220 521Q220 333 353 200Q486 67 674 67Q862 67 995 200Q1092 297 1119 425L1119 615M1117 195Q1092 163 1063 133Q902-28 674-28Q447-28 286 133Q125 294 125 521Q125 749 286 909.50Q447 1070 674 1070Q902 1070 1063 910Q1094 878 1120 843L1120 982L1210 982L1210 219Q1210-2 1053-159Q892-320 665-320Q437-320 276-159Q243-126 217-90L312-56Q327-74 344-91Q477-224 665-224Q852-224 985-91Q1106 30 1117 195Z"  horiz-adv-x="1364" vert-adv-y="2048"  />

      
      <glyph glyph-name="uni68" unicode="&#x68;" d="M150 1600L240 1600L240 931Q354 1041 514 1041Q688 1041 797 932Q906 823 909 657L909 0L819 0L819 649Q819 774 728.50 862.50Q638 951 514 951Q390 951 300 864Q260 824 240 781L240 0L150 0L150 1600Z"  horiz-adv-x="1059" vert-adv-y="2048"  />

      
      <glyph glyph-name="uni69" unicode="&#x69;" d="M260 982L260 0L170 0L170 982L260 982M215 1330Q252 1330 278.50 1304Q305 1278 305 1241Q305 1203 278.50 1177Q252 1151 215 1151Q178 1151 151.50 1177Q125 1203 125 1241Q125 1278 151.50 1304Q178 1330 215 1330Z"  horiz-adv-x="430" vert-adv-y="2048"  />

      
      <glyph glyph-name="uni6a" unicode="&#x6a;" d="M49-138Q170-124 170-2L170 982L260 982L260 0Q260-211 49-228L49-138M215 1330Q252 1330 278.50 1304Q305 1278 305 1241Q305 1203 278.50 1177Q252 1151 215 1151Q178 1151 151.50 1177Q125 1203 125 1241Q125 1278 151.50 1304Q178 1330 215 1330Z"  horiz-adv-x="455" vert-adv-y="2048"  />

      
      <glyph glyph-name="uni6b" unicode="&#x6b;" d="M629 982L387 682L773 0L661 0L328 610L240 501L240 0L150 0L150 1400L240 1400L240 645L513 982L629 982Z"  horiz-adv-x="823" vert-adv-y="2048"  />

      
      <glyph glyph-name="uni6c" unicode="&#x6c;" d="M240 1600L240 0L150 0L150 1600L240 1600Z"  horiz-adv-x="390" vert-adv-y="2048"  />

      
      <glyph glyph-name="uni6d" unicode="&#x6d;" d="M150 982L240 982L240 959Q324 1040 441 1040Q562 1040 647 955Q670 932 687 905Q704 931 728 955Q813 1040 934 1040Q1055 1040 1140 955Q1221 873 1225 758L1225 0L1135 0L1135 758L1136 758Q1132 836 1077 891Q1017 950 934 950Q851 950 791.50 891Q732 832 732 744L732 0L642 0L642 758L643 758Q639 836 584 891Q524 950 441 950Q358 950 299 891Q247 840 240 766L240 0L150 0L150 982Z"  horiz-adv-x="1375" vert-adv-y="2048"  />

      
      <glyph glyph-name="uni6e" unicode="&#x6e;" d="M240 763L240 0L150 0L150 982L240 982L240 919Q363 1041 526 1041Q700 1041 809 932Q918 823 921 657L921 0L831 0L831 649Q831 774 740.50 862.50Q650 951 526 951Q402 951 312 864Q263 815 240 763Z"  horiz-adv-x="1071" vert-adv-y="2048"  />

      
      <glyph glyph-name="uni6f" unicode="&#x6f;" d="M639 1071Q867 1071 1027.50 910Q1188 749 1188 521Q1188 294 1027.50 133Q867-28 639-28Q412-28 251 133Q90 294 90 521Q90 749 251 910Q412 1071 639 1071M639 975Q451 975 318 842Q185 709 185 521Q185 333 318 200.50Q451 68 639 68Q827 68 960 200.50Q1093 333 1093 521Q1093 709 960 842Q827 975 639 975Z"  horiz-adv-x="1278" vert-adv-y="2048"  />

      
      <glyph glyph-name="uni70" unicode="&#x70;" d="M150 982L240 982L240 844Q265 878 297 910Q458 1070 685 1070Q913 1070 1073.50 909.50Q1234 749 1234 521Q1234 294 1073.50 133Q913-28 685-28Q458-28 297 133Q265 165 240 199L240-375L150-375L150 982M240 615L240 427Q266 298 364 200Q497 67 685 67Q873 67 1006 200Q1139 333 1139 521Q1139 709 1006 842Q873 975 685 975Q497 975 364 842Q266 744 240 615Z"  horiz-adv-x="1334" vert-adv-y="2048"  />

      
      <glyph glyph-name="uni71" unicode="&#x71;" d="M1185-375L1095-375L1095 200Q1069 165 1038 133Q877-28 649-28Q422-28 261 133Q100 294 100 521Q100 749 261 909.50Q422 1070 649 1070Q877 1070 1038 910Q1069 878 1095 843L1095 982L1185 982L1185-375M1095 432L1095 610Q1070 742 970 842Q837 975 649 975Q461 975 328 842Q195 709 195 521Q195 333 328 200Q461 67 649 67Q837 67 970 200Q1070 300 1095 432Z"  horiz-adv-x="1335" vert-adv-y="2048"  />

      
      <glyph glyph-name="uni72" unicode="&#x72;" d="M150 982L240 982L240 803Q268 843 305 880Q424 999 549 1005L549 907Q464 903 373 812Q245 685 240 507L240 0L150 0L150 982Z"  horiz-adv-x="599" vert-adv-y="2048"  />

      
      <glyph glyph-name="uni73" unicode="&#x73;" d="M420 505Q305 567 261 611Q192 680 192 777Q192 875 261 944.50Q330 1014 427 1014Q525 1014 589 950Q651 887 651 807L651 802L573 771Q563 847 525.50 885Q488 923 427 923Q367 923 324 880.50Q281 838 281 777Q281 717 324 674Q349 649 430 598Q558 528 612 474Q697 388 697 269Q697 147 612 61.50Q527-24 406-24Q285-24 200 61.50Q115 147 115 249L204 272Q204 184 263.50 125Q323 66 406 66Q489 66 548.50 125Q608 184 608 269Q608 352 549 411Q517 443 420 505Z"  horiz-adv-x="802" vert-adv-y="2048"  />

      
      <glyph glyph-name="uni74" unicode="&#x74;" d="M290 982L290 1400L380 1400L380 982L580 982L580 892L380 892L380 0L290 0L290 892L90 892L90 982L290 982Z"  horiz-adv-x="670" vert-adv-y="2048"  />

      
      <glyph glyph-name="uni75" unicode="&#x75;" d="M555-14Q371-14 262 95Q153 204 150 370L150 982L240 982L240 378Q240 253 331 165Q421 76 554 76Q678 76 768.50 164.50Q859 253 859 378L859 982L949 982L949 370Q946 204 837 95Q728-14 555-14Z"  horiz-adv-x="1099" vert-adv-y="2048"  />

      
      <glyph glyph-name="uni76" unicode="&#x76;" d="M532 164L910 982L1014 982L532-27L50 982L154 982L532 164Z"  horiz-adv-x="1064" vert-adv-y="2048"  />

      
      <glyph glyph-name="uni77" unicode="&#x77;" d="M642 260L642 982L732 982L732 282Q732 194 791.50 135Q851 76 934 76Q1017 76 1077 135Q1132 190 1136 268L1135 268L1135 982L1225 982L1225 268Q1221 153 1140 72Q1055-14 934-14Q813-14 728 72Q705 95 688 120Q671 95 647 72Q562-14 441-14Q320-14 235 72Q154 153 150 268L150 982L240 982L240 268L239 268Q243 190 299 135Q358 76 441 76Q524 76 584 135Q635 186 642 260Z"  horiz-adv-x="1375" vert-adv-y="2048"  />

      
      <glyph glyph-name="uni78" unicode="&#x78;" d="M741 982L488 544L485 539L488 534L796 0L692 0L436 443L180 0L75 0L384 534L387 539L384 544L131 982L235 982L436 635L636 982L741 982Z"  horiz-adv-x="871" vert-adv-y="2048"  />

      
      <glyph glyph-name="uni79" unicode="&#x79;" d="M503 88L281-375L193-375L458 181L75 982L177 982L503 278L829 982L930 982L503 87L503 88Z"  horiz-adv-x="1005" vert-adv-y="2048"  />

      
      <glyph glyph-name="uni7a" unicode="&#x7a;" d="M657 892L150 892L150 982L812 982L304 90L850 90L850 0L150 0L657 892Z"  horiz-adv-x="1000" vert-adv-y="2048"  />

      
      <glyph glyph-name="uni7b" unicode="&#x7b;" d="M125 653Q134 650 145 650Q191 650 268 694Q383 760 419 889Q438 961 438 1041Q438 1085 432 1131Q418 1203 418 1266Q418 1333 434 1392Q464 1504 567 1562Q632 1600 703 1600Q722 1600 741 1597L741 1522Q723 1525 705 1525Q653 1525 604 1498Q529 1455 507 1372Q492 1317 492 1247Q492 1217 495 1183Q511 1107 511 1034Q511 949 490 869Q446 711 305 630Q288 621 270 613Q288 604 305 595Q446 514 490 356Q511 276 511 191Q511 118 495 42Q492 8 492-22Q492-92 507-147Q529-230 604-272Q655-300 708-300Q724-300 741-298L741-372Q722-375 703-375Q632-375 567-337Q464-279 434-166Q418-107 418-40Q418 23 432 94Q438 140 438 184Q438 264 419 336Q383 465 268 531Q191 575 145 575Q134 575 125 572L125 653Z"  horiz-adv-x="866" vert-adv-y="2048"  />

      
      <glyph glyph-name="uni7c" unicode="&#x7c;" d="M240 1600L240-375L150-375L150 1600L240 1600Z"  horiz-adv-x="390" vert-adv-y="2048"  />

      
      <glyph glyph-name="uni7d" unicode="&#x7d;" d="M741 572Q732 575 721 575Q675 575 598 531Q483 465 447 336Q428 264 428 184Q428 140 434 94Q448 23 448-40Q448-107 432-166Q402-279 299-337Q234-375 163-375Q144-375 125-372L125-298Q142-300 158-300Q211-300 262-272Q337-230 359-147Q374-92 374-22Q374 8 371 42Q355 118 355 191Q355 276 376 356Q420 514 561 595Q578 604 596 613Q578 621 561 630Q420 711 376 869Q355 949 355 1034Q355 1107 371 1183Q374 1217 374 1247Q374 1317 359 1372Q337 1455 262 1498Q213 1525 161 1525Q143 1525 125 1522L125 1597Q144 1600 163 1600Q234 1600 299 1562Q402 1504 432 1392Q448 1333 448 1266Q448 1203 434 1131Q428 1085 428 1041Q428 961 447 889Q483 760 598 694Q675 650 721 650Q732 650 741 653L741 572Z"  horiz-adv-x="866" vert-adv-y="2048"  />

      
      <glyph glyph-name="uni7e" unicode="&#x7e;" d="M638 861Q826 752 911 752Q926 752 938 755Q1015 778 1046 855Q1061 893 1061 932L1152 918Q1148 870 1129 821Q1083 710 973 673Q948 665 917 665Q812 665 639 764Q449 873 365 873Q351 873 339 870Q262 847 231 770Q216 731 215 693L125 707Q127 755 147 804Q193 915 304 952Q329 960 359 960Q465 960 638 861Z"  horiz-adv-x="1277" vert-adv-y="2048"  />

      
      <glyph glyph-name="unia1" unicode="&#xa1;" d="M215 1439Q178 1439 151.50 1465Q125 1491 125 1528Q125 1566 151.50 1592Q178 1618 215 1618Q252 1618 278.50 1592Q305 1566 305 1528Q305 1491 278.50 1465Q252 1439 215 1439M172 4L172 1328L262 1328L262 4L172 4Z"  horiz-adv-x="430" vert-adv-y="2048"  />

      
      <glyph glyph-name="unia2" unicode="&#xa2;" d="M551 705Q694 707 797 810Q810 823 825 841L912 809Q886 774 860 747Q731 618 551 616L551 462L461 462L461 623Q330 646 230 747Q99 877 99 1062Q99 1246 230 1377Q330 1477 461 1501L461 1662L551 1662L551 1508Q731 1506 860 1377Q886 1350 912 1316L825 1283Q810 1301 797 1315Q694 1417 551 1419L551 705M461 1410Q366 1388 293 1315Q188 1210 188 1062Q188 914 293 810Q366 736 461 714L461 1410Z"  horiz-adv-x="1013" vert-adv-y="2048"  />

      
      <glyph glyph-name="unia3" unicode="&#xa3;" d="M448 555Q451 534 453 512Q455 490 455 468Q455 264 285 63Q410 108 531 108Q603 108 674 92Q773 69 862 69Q942 69 1013 87L1030-2Q949-22 862-22Q773-22 679 0Q581 21 506 21Q438 21 389 4Q285-34 187-83L100 20Q224 130 256 169Q364 297 364 461Q364 483 362 505Q360 530 356 555L128 555L128 645L337 645Q311 740 262 834Q151 1014 137 1177Q135 1196 135 1215Q135 1354 227 1464Q330 1587 493 1602Q512 1603 531 1603Q670 1603 781 1511Q905 1406 920 1244Q923 1221 923 1200Q923 1137 901 1086L815 1115Q830 1158 830 1210Q830 1224 829 1238Q817 1361 722 1441Q638 1511 532 1511Q518 1511 504 1510Q380 1499 300 1404Q230 1320 230 1215Q230 1200 231 1185Q241 1072 309 929Q395 791 431 645L628 645L628 555L448 555Z"  horiz-adv-x="1130" vert-adv-y="2048"  />

      
      <glyph glyph-name="unia4" unicode="&#xa4;" d="M303 1462Q411 1551 556 1551Q701 1551 809 1462L948 1601L1012 1537L873 1398Q962 1290 962 1145Q962 1000 873 892L1012 753L948 689L809 828Q701 739 556 739Q411 739 303 828L164 689L100 753L239 892Q150 1000 150 1145Q150 1290 239 1398L100 1537L164 1601L303 1462M745 1398Q664 1461 556 1461Q448 1461 367 1398Q349 1385 333 1369Q316 1352 303 1334Q240 1253 240 1145Q240 1037 303 956Q316 938 333 922Q349 905 367 892Q448 829 556 829Q664 829 745 892Q763 905 780 922Q796 938 809 956Q872 1037 872 1145Q872 1253 809 1334Q796 1352 780 1369Q763 1385 745 1398Z"  horiz-adv-x="1112" vert-adv-y="2048"  />

      
      <glyph glyph-name="unia5" unicode="&#xa5;" d="M650 755L1138 1600L1241 1600L752 755L1046 755L1046 665L700 665L690 647L690 545L1046 545L1046 455L690 455L690 0L600 0L600 455L246 455L246 545L600 545L600 647L590 665L246 665L246 755L538 755L50 1600L153 1600L640 755L650 755Z"  horiz-adv-x="1291" vert-adv-y="2048"  />

      
      <glyph glyph-name="unia6" unicode="&#xa6;" d="M240 1600L240 751L150 751L150 1600L240 1600M240 474L240-375L150-375L150 474L240 474Z"  horiz-adv-x="390" vert-adv-y="2048"  />

      
      <glyph glyph-name="unia7" unicode="&#xa7;" d="M881 345Q892 359 907 374Q970 437 970 597Q970 756 857 869Q758 968 614 1027Q443 1084 344 1183Q301 1226 277 1277Q266 1263 251 1248Q188 1185 188 1025Q188 866 301 753Q400 654 544 595Q715 538 814 439Q857 396 881 345M250 1362Q245 1391 245 1423Q245 1561 344 1660.50Q443 1760 584 1760Q724 1760 824 1661Q879 1608 900 1542L819 1510Q801 1559 760 1600Q687 1672 584 1672Q481 1672 408 1599.50Q335 1527 335 1423Q335 1320 408 1247Q476 1180 596 1124Q788 1062 919 931Q1058 793 1058 597Q1058 400 969 311Q933 275 908 260Q913 231 913 199Q913 61 814-38.50Q715-138 574-138Q434-138 334-39Q279 14 258 80L339 112Q357 63 398 22Q471-50 574-50Q677-50 750 22.50Q823 95 823 199Q823 302 750 375Q682 442 562 498Q370 560 239 691Q100 829 100 1025Q100 1222 189 1311Q225 1347 250 1362Z"  horiz-adv-x="1158" vert-adv-y="2048"  />

      
      <glyph glyph-name="unia8" unicode="&#xa8;" d="M215 1330Q252 1330 278.50 1304Q305 1278 305 1241Q305 1203 278.50 1177Q252 1151 215 1151Q178 1151 151.50 1177Q125 1203 125 1241Q125 1278 151.50 1304Q178 1330 215 1330M515 1330Q552 1330 578.50 1304Q605 1278 605 1241Q605 1203 578.50 1177Q552 1151 515 1151Q478 1151 451.50 1177Q425 1203 425 1241Q425 1278 451.50 1304Q478 1330 515 1330Z"  horiz-adv-x="730" vert-adv-y="2048"  />

      
      <glyph glyph-name="unia9" unicode="&#xa9;" d="M917 442L985 417Q965 389 945 369Q848 272 711 272Q574 272 477 369Q380 466 380 603Q380 740 477 837Q574 934 711 934Q848 934 945 837Q965 817 985 789L917 764Q906 778 896 789Q819 865 711 865Q603 865 526 788.50Q449 712 449 603Q449 495 526 418Q603 341 711 341Q819 341 896 418Q906 428 917 442M700 1204Q948 1204 1124 1028Q1300 852 1300 603Q1300 354 1124 178Q948 2 700 2Q451 2 275 178Q99 354 99 603Q99 852 275 1028Q451 1204 700 1204M700 1133Q480 1133 325 978Q170 823 170 603Q170 384 325 228.50Q480 73 700 73Q919 73 1074 228.50Q1229 384 1229 603Q1229 823 1074 978Q919 1133 700 1133Z"  horiz-adv-x="1405" vert-adv-y="2048"  />

      
      <glyph glyph-name="uniaa" unicode="&#xaa;" d="M131 944L706 944L706 913L100 913L100 1541L131 1541L131 944M778 1071L723 1071L723 1156Q721 1153 706 1137Q626 1058 514 1058Q401 1058 322 1137.50Q243 1217 243 1329Q243 1441 322 1520.50Q401 1600 514 1600Q626 1600 706 1521Q721 1505 723 1502L723 1557L778 1557L778 1071M723 1286L723 1371Q712 1433 664 1480Q602 1542 514 1542Q425 1542 362.50 1479.50Q300 1417 300 1329Q300 1240 362.50 1178Q425 1116 514 1116Q602 1116 664 1178Q712 1225 723 1286Z"  horiz-adv-x="878" vert-adv-y="2048"  />

      
      <glyph glyph-name="uniab" unicode="&#xab;" d="M444 462L880 922L880 818L549 462L880 106L880 1L444 462M100 462L529 922L529 818L198 462L529 106L529 1L100 462Z"  horiz-adv-x="980" vert-adv-y="2048"  />

      
      <glyph glyph-name="uniae" unicode="&#xae;" d="M467 1371L467 993L583 993Q661 993 716.50 1048.50Q772 1104 772 1182Q772 1260 716.50 1315.50Q661 1371 583 1371L467 1371M730 721L592 936L467 936L467 781L412 781L412 1425L610 1425Q696 1413 756 1353Q827 1282 827 1181Q827 1079 756 1007Q706 958 652 945L782 745Q835 775 880 819Q1004 944 1004 1119Q1004 1295 880 1419Q756 1543 581 1543Q405 1543 281 1419Q157 1295 157 1119Q157 944 281 819Q340 761 410 730Q438 717 468 709Q521 695 581 695Q659 695 730 721M782.50 684Q782.50 684 738.25 661Q694 638 581 638Q381 638 240.50 779Q100 920 100 1119Q100 1318 240.50 1459Q381 1600 581 1600Q779 1600 920 1459Q1061 1318 1061 1119Q1061 920 920 779Q871 730 782.50 684Z"  horiz-adv-x="1161" vert-adv-y="2048"  />

      
      <glyph glyph-name="uniaf" unicode="&#xaf;" d="M125 1427L715 1427L715 1337L125 1337L125 1427Z"  horiz-adv-x="840" vert-adv-y="2048"  />

      
      <glyph glyph-name="unib0" unicode="&#xb0;" d="M381 1600Q477 1600 544.50 1532.50Q612 1465 612 1369Q612 1273 544.50 1205.50Q477 1138 381 1138Q285 1138 217.50 1205.50Q150 1273 150 1369Q150 1465 217.50 1532.50Q285 1600 381 1600M381 1529Q315 1529 268 1482Q221 1435 221 1369Q221 1303 268 1256Q315 1209 381 1209Q447 1209 494 1256Q541 1303 541 1369Q541 1435 494 1482Q447 1529 381 1529Z"  horiz-adv-x="762" vert-adv-y="2048"  />

      
      <glyph glyph-name="unib1" unicode="&#xb1;" d="M480 547L125 547L125 637L480 637L480 992L570 992L570 637L925 637L925 547L570 547L570 192L480 192L480 547M125 90L925 90L925 0L125 0L125 90Z"  horiz-adv-x="1050" vert-adv-y="2048"  />

      
      <glyph glyph-name="unib2" unicode="&#xb2;" d="M128 629Q160 829 269.50 904.50Q379 980 461 1036.50Q543 1093 612 1163Q681 1233 681 1325Q681 1418 612 1481.50Q543 1545 448 1545Q354 1545 286 1482Q226 1427 215 1334L125 1365Q141 1463 216 1533Q312 1622 448 1622Q585 1622 679.50 1534.50Q774 1447 774 1325Q774 1205 683 1114Q621 1052 538 995Q455 938 349 865Q252 797 230 703L774 703L774 629L128 629Z"  horiz-adv-x="899" vert-adv-y="2048"  />

      
      <glyph glyph-name="unib3" unicode="&#xb3;" d="M412 1165L349 1166L349 1240Q422 1240 457 1252.50Q492 1265 534.50 1307Q577 1349 577 1408Q577 1467 534.50 1506.50Q492 1546 433 1546Q375 1546 333 1508Q309 1485 292 1443L208 1473Q225 1524 263 1557Q334 1622 433 1622Q534 1622 602.50 1558Q671 1494 671 1408Q671 1320 619.50 1269Q568 1218 547 1210Q618 1188 683 1124Q774 1033 774 912Q774 791 679.50 703.50Q585 616 448 616Q312 616 216 705Q141 774 125 873L215 903Q226 810 286 755Q354 693 448 693Q543 693 612 756.50Q681 820 681 912Q681 1005 613.50 1073Q546 1141 412 1165Z"  horiz-adv-x="899" vert-adv-y="2048"  />

      
      <glyph glyph-name="unib4" unicode="&#xb4;" d="M479 1387L234 1200L150 1200L313 1387L479 1387Z"  horiz-adv-x="629" vert-adv-y="2048"  />

      
      <glyph glyph-name="unib5" unicode="&#xb5;" d="M808 111Q803 106 797 100Q688-9 514-9Q354-9 240 101L240-375L150-375L150 982L240 982L240 251Q260 208 300 168Q390 81 514 81Q638 81 729 170Q787 227 808 300L808 982L896 982L896 0L808 0L808 111Z"  horiz-adv-x="1046" vert-adv-y="2048"  />

      
      <glyph glyph-name="unib6" unicode="&#xb6;" d="M815 1602L815-375L725-375L725 646L573 646Q357 646 204 799Q51 952 51 1169Q51 1385 204 1538Q332 1666 515 1691L595 1691L595 1692L1086 1692L1086 1602L998 1602L998-375L908-375L908 1602L815 1602Z"  horiz-adv-x="1135" vert-adv-y="2048"  />

      
      <glyph glyph-name="unib7" unicode="&#xb7;" d="M202 876Q233 876 255.50 854Q278 832 278 800Q278 768 255.50 746Q233 724 202 724Q170 724 147.50 746Q125 768 125 800Q125 832 147.50 854Q170 876 202 876Z"  horiz-adv-x="403" vert-adv-y="2048"  />

      
      <glyph glyph-name="uni2219" unicode="&#x2219;" d="M202 876Q233 876 255.50 854Q278 832 278 800Q278 768 255.50 746Q233 724 202 724Q170 724 147.50 746Q125 768 125 800Q125 832 147.50 854Q170 876 202 876Z"  horiz-adv-x="403" vert-adv-y="2048"  />

      
      <glyph glyph-name="unib8" unicode="&#xb8;" d="M156 0L153-29L152-35L153-35L150-75Q164-82 178-90Q238-129 246-184Q247-191 247-198Q247-243 204-276Q153-315 74-315Q40-315 10-308L21-253Q42-260 67-260Q112-260 141-237Q166-218 166-191L166-184Q161-152 126-129Q91-108 49-107L92 0L156 0Z"  horiz-adv-x="257" vert-adv-y="2048"  />

      
      <glyph glyph-name="unib9" unicode="&#xb9;" d="M530 1600L530 620L440 620L440 1485L368 1485L465 1600L530 1600Z"  horiz-adv-x="899" vert-adv-y="2048"  />

      
      <glyph glyph-name="uniba" unicode="&#xba;" d="M529 1116Q637 1121 695 1178Q757 1240 757 1329Q757 1417 695 1480Q637 1537 529 1542Q420 1537 363 1480Q300 1417 300 1329Q300 1240 363 1178Q420 1121 529 1116M514 1058Q401 1058 322 1137.50Q243 1217 243 1329Q243 1441 322 1520.50Q401 1600 514 1600L543 1600Q656 1600 735 1520.50Q814 1441 814 1329Q814 1217 735 1137.50Q656 1058 543 1058L514 1058M131 944L706 944L706 913L100 913L100 1541L131 1541L131 944Z"  horiz-adv-x="914" vert-adv-y="2048"  />

      
      <glyph glyph-name="unibb" unicode="&#xbb;" d="M100 1L100 106L431 462L100 818L100 922L536 462L100 1M451 1L451 106L782 462L451 818L451 922L880 462L451 1Z"  horiz-adv-x="980" vert-adv-y="2048"  />

      
      <glyph glyph-name="unibf" unicode="&#xbf;" d="M389 786Q506 889 566 1015Q606 1097 606 1181Q606 1245 583 1310L666 1339Q694 1259 694 1181Q694 1077 645 977Q565 810 404 688Q309 596 268 510Q242 457 242 402Q242 361 256 320Q291 222 384 177Q437 152 491 152Q532 152 574 167Q671 201 716 293Q741 345 741 398L829 394L829 386Q829 321 797 257Q735 130 603 84Q545 64 489 64Q415 64 343 98Q217 159 171 290Q151 347 151 403Q151 477 186 549Q247 676 389 786M630 1439Q593 1439 566.50 1465Q540 1491 540 1528Q540 1566 566.50 1592Q593 1618 630 1618Q667 1618 693.50 1592Q720 1566 720 1528Q720 1491 693.50 1465Q667 1439 630 1439Z"  horiz-adv-x="956" vert-adv-y="2048"  />

      
      <glyph glyph-name="unic0" unicode="&#xc0;" d="M890 703L646 1374L402 703L890 703M923 613L369 613L146 0L50 0L646 1637L1241 0L1146 0L923 613M592 2005L755 1818L671 1818L426 2005L592 2005Z"  horiz-adv-x="1291" vert-adv-y="2048"  />

      
      <glyph glyph-name="unic1" unicode="&#xc1;" d="M890 703L646 1374L402 703L890 703M923 613L369 613L146 0L50 0L646 1637L1241 0L1146 0L923 613M865 2005L620 1818L536 1818L699 2005L865 2005Z"  horiz-adv-x="1291" vert-adv-y="2048"  />

      
      <glyph glyph-name="unic2" unicode="&#xc2;" d="M890 703L646 1374L402 703L890 703M923 613L369 613L146 0L50 0L646 1637L1241 0L1146 0L923 613M693 1942L931 1708L827 1708L641 1851L465 1708L360 1708L589 1942L693 1942Z"  horiz-adv-x="1291" vert-adv-y="2048"  />

      
      <glyph glyph-name="unic3" unicode="&#xc3;" d="M890 703L646 1374L402 703L890 703M923 613L369 613L146 0L50 0L646 1637L1241 0L1146 0L923 613M640 1873Q715 1813 764 1813L769 1813Q819 1816 839 1897L908 1897Q887 1768 809 1745Q788 1739 767 1739Q710 1739 652 1785Q577 1844 528 1844L523 1844Q473 1841 453 1760L383 1760Q405 1889 483 1912Q504 1918 525 1918Q582 1918 640 1873Z"  horiz-adv-x="1291" vert-adv-y="2048"  />

      
      <glyph glyph-name="unic4" unicode="&#xc4;" d="M890 703L646 1374L402 703L890 703M923 613L369 613L146 0L50 0L646 1637L1241 0L1146 0L923 613M496 1948Q533 1948 559.50 1922Q586 1896 586 1859Q586 1821 559.50 1795Q533 1769 496 1769Q459 1769 432.50 1795Q406 1821 406 1859Q406 1896 432.50 1922Q459 1948 496 1948M796 1948Q833 1948 859.50 1922Q886 1896 886 1859Q886 1821 859.50 1795Q833 1769 796 1769Q759 1769 732.50 1795Q706 1821 706 1859Q706 1896 732.50 1922Q759 1948 796 1948Z"  horiz-adv-x="1291" vert-adv-y="2048"  />

      
      <glyph glyph-name="unic5" unicode="&#xc5;" d="M890 703L646 1374L402 703L890 703M923 613L369 613L146 0L50 0L646 1637L1241 0L1146 0L923 613M646 1980Q697 1980 733 1944Q769 1908 769 1857Q769 1807 733 1771Q697 1735 646 1735Q595 1735 559 1771Q523 1807 523 1857Q523 1908 559 1944Q595 1980 646 1980M646 1915Q622 1915 605 1898Q588 1881 588 1857Q588 1834 605 1817Q622 1800 646 1800Q669 1800 686 1817Q703 1834 703 1857Q703 1881 686 1898Q669 1915 646 1915Z"  horiz-adv-x="1291" vert-adv-y="2048"  />

      
      <glyph glyph-name="unic6" unicode="&#xc6;" d="M1551 1600L1551 1510L841 1510L841 845L1551 845L1551 755L841 755L841 90L1551 90L1551 0L751 0L751 613L429 613L166 0L40 0L751 1597L751 1600L1551 1600M751 1373L462 703L751 703L751 1373Z"  horiz-adv-x="1676" vert-adv-y="2048"  />

      
      <glyph glyph-name="unic7" unicode="&#xc7;" d="M773-3Q541 44 365 221Q125 460 125 800Q125 1139 364.50 1379Q604 1619 944 1619Q1261 1619 1495 1406L1427 1344Q1221 1527 944 1527Q643 1527 430 1314Q217 1101 217 800Q217 498 430 285Q643 72 944 72Q1221 72 1427 255L1495 194Q1261-19 944-19Q889-19 837-13L835-29L834-35L835-35L832-75Q846-82 860-90Q920-129 928-184Q929-191 929-198Q929-243 886-276Q835-315 756-315Q722-315 692-308L703-253Q724-260 749-260Q794-260 823-237Q848-218 848-191L848-184Q843-152 808-129Q773-108 731-107L773-3Z"  horiz-adv-x="1595" vert-adv-y="2048"  />

      
      <glyph glyph-name="unic8" unicode="&#xc8;" d="M950 1600L950 1510L240 1510L240 845L950 845L950 755L240 755L240 90L950 90L950 0L150 0L150 1600L950 1600M497 2005L660 1818L576 1818L331 2005L497 2005Z"  horiz-adv-x="1075" vert-adv-y="2048"  />

      
      <glyph glyph-name="unic9" unicode="&#xc9;" d="M950 1600L950 1510L240 1510L240 845L950 845L950 755L240 755L240 90L950 90L950 0L150 0L150 1600L950 1600M769 2005L524 1818L440 1818L603 2005L769 2005Z"  horiz-adv-x="1075" vert-adv-y="2048"  />

      
      <glyph glyph-name="unica" unicode="&#xca;" d="M950 1600L950 1510L240 1510L240 845L950 845L950 755L240 755L240 90L950 90L950 0L150 0L150 1600L950 1600M598 1942L836 1708L732 1708L546 1851L370 1708L265 1708L494 1942L598 1942Z"  horiz-adv-x="1075" vert-adv-y="2048"  />

      
      <glyph glyph-name="unicb" unicode="&#xcb;" d="M950 1600L950 1510L240 1510L240 845L950 845L950 755L240 755L240 90L950 90L950 0L150 0L150 1600L950 1600M400 1948Q437 1948 463.50 1922Q490 1896 490 1859Q490 1821 463.50 1795Q437 1769 400 1769Q363 1769 336.50 1795Q310 1821 310 1859Q310 1896 336.50 1922Q363 1948 400 1948M700 1948Q737 1948 763.50 1922Q790 1896 790 1859Q790 1821 763.50 1795Q737 1769 700 1769Q663 1769 636.50 1795Q610 1821 610 1859Q610 1896 636.50 1922Q663 1948 700 1948Z"  horiz-adv-x="1075" vert-adv-y="2048"  />

      
      <glyph glyph-name="unicc" unicode="&#xcc;" d="M260 1600L260 0L170 0L170 1600L260 1600M162 2005L325 1818L241 1818L-4 2005L162 2005Z"  horiz-adv-x="430" vert-adv-y="2048"  />

      
      <glyph glyph-name="unicd" unicode="&#xcd;" d="M260 1600L260 0L170 0L170 1600L260 1600M434 2005L189 1818L105 1818L268 2005L434 2005Z"  horiz-adv-x="430" vert-adv-y="2048"  />

      
      <glyph glyph-name="unice" unicode="&#xce;" d="M261 1600L261 0L171 0L171 1600L261 1600M263 1942L501 1708L397 1708L211 1851L35 1708L-70 1708L159 1942L263 1942Z"  horiz-adv-x="430" vert-adv-y="2048"  />

      
      <glyph glyph-name="unicf" unicode="&#xcf;" d="M260 1600L260 0L170 0L170 1600L260 1600M65 1948Q102 1948 128.50 1922Q155 1896 155 1859Q155 1821 128.50 1795Q102 1769 65 1769Q28 1769 1.50 1795Q-25 1821-25 1859Q-25 1896 1.50 1922Q28 1948 65 1948M365 1948Q402 1948 428.50 1922Q455 1896 455 1859Q455 1821 428.50 1795Q402 1769 365 1769Q328 1769 301.50 1795Q275 1821 275 1859Q275 1896 301.50 1922Q328 1948 365 1948Z"  horiz-adv-x="430" vert-adv-y="2048"  />

      
      <glyph glyph-name="unid0" unicode="&#xd0;" d="M210 845L210 1600L300 1600L300 1598L307 1598Q702 1598 919 1380Q1159 1139 1159 800Q1159 460 919 220Q702 2 307 2L300 2L300 0L210 0L210 755L50 755L50 845L210 845M300 845L670 845L670 755L300 755L300 93L307 93Q663 93 854 285Q1067 498 1067 800Q1067 1101 854 1315Q663 1506 307 1506L300 1506L300 845Z"  horiz-adv-x="1284" vert-adv-y="2048"  />

      
      <glyph glyph-name="unid1" unicode="&#xd1;" d="M150 1600L249 1600L1071 177L1071 1600L1161 1600L1161 0L1071 0L240 1437L240 0L150 0L150 1600M650 1873Q725 1813 774 1813L779 1813Q829 1816 849 1897L918 1897Q897 1768 819 1745Q798 1739 777 1739Q720 1739 662 1785Q587 1844 538 1844L533 1844Q483 1841 463 1760L393 1760Q415 1889 493 1912Q514 1918 535 1918Q592 1918 650 1873Z"  horiz-adv-x="1311" vert-adv-y="2048"  />

      
      <glyph glyph-name="unid2" unicode="&#xd2;" d="M946 1623Q1286 1623 1526.50 1382.50Q1767 1142 1767 802Q1767 462 1526.50 221.50Q1286-19 946-19Q606-19 365.50 221.50Q125 462 125 802Q125 1142 365.50 1382.50Q606 1623 946 1623M946 1531Q644 1531 430.50 1317.50Q217 1104 217 802Q217 500 430.50 286Q644 72 946 72Q1248 72 1461.50 286Q1675 500 1675 802Q1675 1104 1461.50 1317.50Q1248 1531 946 1531M893 2005L1056 1818L972 1818L727 2005L893 2005Z"  horiz-adv-x="1892" vert-adv-y="2048"  />

      
      <glyph glyph-name="unid3" unicode="&#xd3;" d="M946 1623Q1286 1623 1526.50 1382.50Q1767 1142 1767 802Q1767 462 1526.50 221.50Q1286-19 946-19Q606-19 365.50 221.50Q125 462 125 802Q125 1142 365.50 1382.50Q606 1623 946 1623M946 1531Q644 1531 430.50 1317.50Q217 1104 217 802Q217 500 430.50 286Q644 72 946 72Q1248 72 1461.50 286Q1675 500 1675 802Q1675 1104 1461.50 1317.50Q1248 1531 946 1531M1165 2005L920 1818L836 1818L999 2005L1165 2005Z"  horiz-adv-x="1892" vert-adv-y="2048"  />

      
      <glyph glyph-name="unid4" unicode="&#xd4;" d="M946 1623Q1286 1623 1526.50 1382.50Q1767 1142 1767 802Q1767 462 1526.50 221.50Q1286-19 946-19Q606-19 365.50 221.50Q125 462 125 802Q125 1142 365.50 1382.50Q606 1623 946 1623M946 1531Q644 1531 430.50 1317.50Q217 1104 217 802Q217 500 430.50 286Q644 72 946 72Q1248 72 1461.50 286Q1675 500 1675 802Q1675 1104 1461.50 1317.50Q1248 1531 946 1531M994 1942L1232 1708L1128 1708L942 1851L766 1708L661 1708L890 1942L994 1942Z"  horiz-adv-x="1892" vert-adv-y="2048"  />

      
      <glyph glyph-name="unid5" unicode="&#xd5;" d="M946 1623Q1286 1623 1526.50 1382.50Q1767 1142 1767 802Q1767 462 1526.50 221.50Q1286-19 946-19Q606-19 365.50 221.50Q125 462 125 802Q125 1142 365.50 1382.50Q606 1623 946 1623M946 1531Q644 1531 430.50 1317.50Q217 1104 217 802Q217 500 430.50 286Q644 72 946 72Q1248 72 1461.50 286Q1675 500 1675 802Q1675 1104 1461.50 1317.50Q1248 1531 946 1531M941 1873Q1016 1813 1065 1813L1070 1813Q1120 1816 1140 1897L1209 1897Q1188 1768 1110 1745Q1089 1739 1068 1739Q1011 1739 953 1785Q878 1844 829 1844L824 1844Q774 1841 754 1760L684 1760Q706 1889 784 1912Q805 1918 826 1918Q883 1918 941 1873Z"  horiz-adv-x="1892" vert-adv-y="2048"  />

      
      <glyph glyph-name="unid6" unicode="&#xd6;" d="M946 1623Q1286 1623 1526.50 1382.50Q1767 1142 1767 802Q1767 462 1526.50 221.50Q1286-19 946-19Q606-19 365.50 221.50Q125 462 125 802Q125 1142 365.50 1382.50Q606 1623 946 1623M946 1531Q644 1531 430.50 1317.50Q217 1104 217 802Q217 500 430.50 286Q644 72 946 72Q1248 72 1461.50 286Q1675 500 1675 802Q1675 1104 1461.50 1317.50Q1248 1531 946 1531M796 1948Q833 1948 859.50 1922Q886 1896 886 1859Q886 1821 859.50 1795Q833 1769 796 1769Q759 1769 732.50 1795Q706 1821 706 1859Q706 1896 732.50 1922Q759 1948 796 1948M1096 1948Q1133 1948 1159.50 1922Q1186 1896 1186 1859Q1186 1821 1159.50 1795Q1133 1769 1096 1769Q1059 1769 1032.50 1795Q1006 1821 1006 1859Q1006 1896 1032.50 1922Q1059 1948 1096 1948Z"  horiz-adv-x="1892" vert-adv-y="2048"  />

      
      <glyph glyph-name="unid7" unicode="&#xd7;" d="M525 528L274 277L210 341L461 592L210 843L274 907L525 656L776 907L839 843L588 592L839 341L776 277L525 528Z"  horiz-adv-x="1050" vert-adv-y="2048"  />

      
      <glyph glyph-name="unid8" unicode="&#xd8;" d="M1213 1483Q1090 1531 946 1531Q644 1531 430.50 1317.50Q217 1104 217 802Q217 500 431 286Q508 209 597 159L1213 1483M678 121Q802 72 946 72Q1248 72 1461.50 286Q1675 500 1675 802Q1675 1104 1462 1318Q1384 1395 1295 1444L678 121M1334 1528Q1437 1472 1527 1383Q1767 1142 1767 802Q1767 462 1526.50 221.50Q1286-19 946-19Q781-19 640 38L554-146L472-108L558 76Q455 132 366 222Q125 462 125 802Q125 1142 365.50 1382.50Q606 1623 946 1623Q1111 1623 1252 1566L1338 1750L1420 1712L1334 1528Z"  horiz-adv-x="1892" vert-adv-y="2048"  />

      
      <glyph glyph-name="unid9" unicode="&#xd9;" d="M1104 1600L1195 1600L1195 450Q1170 267 1042 139Q889-14 673-14Q456-14 303 139Q150 292 150 508L150 1600L241 1600L241 508Q241 330 367.50 203.50Q494 77 673 77Q852 77 978 203.50Q1104 330 1104 508L1104 1600M619 2005L782 1818L698 1818L453 2005L619 2005Z"  horiz-adv-x="1345" vert-adv-y="2048"  />

      
      <glyph glyph-name="unida" unicode="&#xda;" d="M1104 1600L1195 1600L1195 450Q1170 267 1042 139Q889-14 673-14Q456-14 303 139Q150 292 150 508L150 1600L241 1600L241 508Q241 330 367.50 203.50Q494 77 673 77Q852 77 978 203.50Q1104 330 1104 508L1104 1600M892 2005L647 1818L563 1818L726 2005L892 2005Z"  horiz-adv-x="1345" vert-adv-y="2048"  />

      
      <glyph glyph-name="unidb" unicode="&#xdb;" d="M1104 1600L1195 1600L1195 450Q1170 267 1042 139Q889-14 673-14Q456-14 303 139Q150 292 150 508L150 1600L241 1600L241 508Q241 330 367.50 203.50Q494 77 673 77Q852 77 978 203.50Q1104 330 1104 508L1104 1600M720 1942L958 1708L854 1708L668 1851L492 1708L387 1708L616 1942L720 1942Z"  horiz-adv-x="1345" vert-adv-y="2048"  />

      
      <glyph glyph-name="unidc" unicode="&#xdc;" d="M1104 1600L1195 1600L1195 450Q1170 267 1042 139Q889-14 673-14Q456-14 303 139Q150 292 150 508L150 1600L241 1600L241 508Q241 330 367.50 203.50Q494 77 673 77Q852 77 978 203.50Q1104 330 1104 508L1104 1600M523 1948Q560 1948 586.50 1922Q613 1896 613 1859Q613 1821 586.50 1795Q560 1769 523 1769Q486 1769 459.50 1795Q433 1821 433 1859Q433 1896 459.50 1922Q486 1948 523 1948M823 1948Q860 1948 886.50 1922Q913 1896 913 1859Q913 1821 886.50 1795Q860 1769 823 1769Q786 1769 759.50 1795Q733 1821 733 1859Q733 1896 759.50 1922Q786 1948 823 1948Z"  horiz-adv-x="1345" vert-adv-y="2048"  />

      
      <glyph glyph-name="unidd" unicode="&#xdd;" d="M600 647L50 1600L153 1600L645 747L1138 1600L1241 1600L690 647L690 0L600 0L600 647M865 2005L620 1818L536 1818L699 2005L865 2005Z"  horiz-adv-x="1291" vert-adv-y="2048"  />

      
      <glyph glyph-name="unide" unicode="&#xde;" d="M240 1323L570 1323Q753 1298 881 1170Q1034 1017 1034 801Q1034 584 881 431Q728 278 512 278L240 278L240 0L150 0L150 1600L240 1600L240 1323M240 369L512 369Q690 369 816.50 495.50Q943 622 943 801Q943 980 816.50 1106Q690 1232 512 1232L240 1232L240 369Z"  horiz-adv-x="1124" vert-adv-y="2048"  />

      
      <glyph glyph-name="unidf" unicode="&#xdf;" d="M431 1608L447 1608Q568 1608 653 1538Q744 1463 752 1311L752 1294Q752 1154 623 1072Q981 929 994 551Q994 324 834 158Q685 4 478 1L478 0L311 0L311 90L478 90L478 89Q645 100 766 226Q899 363 899 551Q899 739 766 872Q633 1005 411 1005L411 1101Q550 1108 607 1160.50Q664 1213 664 1302Q664 1390 608 1454Q555 1514 457 1514L446 1514Q340 1510 288 1448.50Q236 1387 230 1266L230 0L140 0L140 1281Q150 1443 225 1523Q300 1603 431 1608Z"  horiz-adv-x="1084" vert-adv-y="2048"  />

      
      <glyph glyph-name="unie0" unicode="&#xe0;" d="M1210 0L1120 0L1120 200Q1094 165 1063 133Q902-28 674-28Q447-28 286 133Q125 294 125 521Q125 749 286 910Q447 1071 674 1071Q902 1071 1063 910Q1094 878 1120 843L1120 982L1210 982L1210 0M1120 432L1120 610Q1095 742 995 842Q862 975 674 975Q486 975 353 842Q220 709 220 521Q220 333 353 200.50Q486 68 674 68Q862 68 995 201Q1095 301 1120 432M614 1387L777 1200L693 1200L448 1387L614 1387Z"  horiz-adv-x="1360" vert-adv-y="2048"  />

      
      <glyph glyph-name="unie1" unicode="&#xe1;" d="M1210 0L1120 0L1120 200Q1094 165 1063 133Q902-28 674-28Q447-28 286 133Q125 294 125 521Q125 749 286 910Q447 1071 674 1071Q902 1071 1063 910Q1094 878 1120 843L1120 982L1210 982L1210 0M1120 432L1120 610Q1095 742 995 842Q862 975 674 975Q486 975 353 842Q220 709 220 521Q220 333 353 200.50Q486 68 674 68Q862 68 995 201Q1095 301 1120 432M887 1387L642 1200L558 1200L721 1387L887 1387Z"  horiz-adv-x="1360" vert-adv-y="2048"  />

      
      <glyph glyph-name="unie2" unicode="&#xe2;" d="M1210 0L1120 0L1120 200Q1094 165 1063 133Q902-28 674-28Q447-28 286 133Q125 294 125 521Q125 749 286 910Q447 1071 674 1071Q902 1071 1063 910Q1094 878 1120 843L1120 982L1210 982L1210 0M1120 432L1120 610Q1095 742 995 842Q862 975 674 975Q486 975 353 842Q220 709 220 521Q220 333 353 200.50Q486 68 674 68Q862 68 995 201Q1095 301 1120 432M715 1324L953 1090L849 1090L663 1233L487 1090L382 1090L611 1324L715 1324Z"  horiz-adv-x="1360" vert-adv-y="2048"  />

      
      <glyph glyph-name="unie3" unicode="&#xe3;" d="M1210 0L1120 0L1120 200Q1094 165 1063 133Q902-28 674-28Q447-28 286 133Q125 294 125 521Q125 749 286 910Q447 1071 674 1071Q902 1071 1063 910Q1094 878 1120 843L1120 982L1210 982L1210 0M1120 432L1120 610Q1095 742 995 842Q862 975 674 975Q486 975 353 842Q220 709 220 521Q220 333 353 200.50Q486 68 674 68Q862 68 995 201Q1095 301 1120 432M662 1255Q737 1195 786 1195L791 1195Q841 1198 861 1279L930 1279Q909 1150 831 1127Q810 1121 789 1121Q732 1121 674 1167Q599 1226 550 1226L545 1226Q495 1223 475 1142L405 1142Q427 1271 505 1294Q526 1300 547 1300Q604 1300 662 1255Z"  horiz-adv-x="1360" vert-adv-y="2048"  />

      
      <glyph glyph-name="unie4" unicode="&#xe4;" d="M1210 0L1120 0L1120 200Q1094 165 1063 133Q902-28 674-28Q447-28 286 133Q125 294 125 521Q125 749 286 910Q447 1071 674 1071Q902 1071 1063 910Q1094 878 1120 843L1120 982L1210 982L1210 0M1120 432L1120 610Q1095 742 995 842Q862 975 674 975Q486 975 353 842Q220 709 220 521Q220 333 353 200.50Q486 68 674 68Q862 68 995 201Q1095 301 1120 432M518 1330Q555 1330 581.50 1304Q608 1278 608 1241Q608 1203 581.50 1177Q555 1151 518 1151Q481 1151 454.50 1177Q428 1203 428 1241Q428 1278 454.50 1304Q481 1330 518 1330M818 1330Q855 1330 881.50 1304Q908 1278 908 1241Q908 1203 881.50 1177Q855 1151 818 1151Q781 1151 754.50 1177Q728 1203 728 1241Q728 1278 754.50 1304Q781 1330 818 1330Z"  horiz-adv-x="1360" vert-adv-y="2048"  />

      
      <glyph glyph-name="unie5" unicode="&#xe5;" d="M1210 0L1120 0L1120 200Q1094 165 1063 133Q902-28 674-28Q447-28 286 133Q125 294 125 521Q125 749 286 910Q447 1071 674 1071Q902 1071 1063 910Q1094 878 1120 843L1120 982L1210 982L1210 0M1120 432L1120 610Q1095 742 995 842Q862 975 674 975Q486 975 353 842Q220 709 220 521Q220 333 353 200.50Q486 68 674 68Q862 68 995 201Q1095 301 1120 432M668 1362Q719 1362 755 1326Q791 1290 791 1239Q791 1189 755 1153Q719 1117 668 1117Q617 1117 581 1153Q545 1189 545 1239Q545 1290 581 1326Q617 1362 668 1362M668 1297Q644 1297 627 1280Q610 1263 610 1239Q610 1216 627 1199Q644 1182 668 1182Q691 1182 708 1199Q725 1216 725 1239Q725 1263 708 1280Q691 1297 668 1297Z"  horiz-adv-x="1360" vert-adv-y="2048"  />

      
      <glyph glyph-name="unie6" unicode="&#xe6;" d="M1038 739Q1008 794 960 842Q827 975 639 975Q451 975 318 842Q185 709 185 521Q185 333 318 200.50Q451 68 639 68Q827 68 960 201Q1008 249 1038 303Q1072 363 1085 432L1085 610Q1072 679 1038 739M1973 663Q1941 766 1865 842Q1732 975 1544 975Q1356 975 1223 842Q1196 815 1175 787L1175 663L1973 663M1175 256Q1196 227 1223 201Q1356 68 1544 68Q1732 68 1865 201Q1888 224 1908 249L2004 215Q1987 187 1933 133Q1772-28 1544-28Q1330-28 1175 115L1175 0L1085 0L1085 200Q1059 165 1028 133Q867-28 639-28Q412-28 251 133Q90 294 90 521Q90 749 251 910Q412 1071 639 1071Q867 1071 1028 910Q1059 878 1085 843L1085 982L1175 982L1175 928Q1330 1071 1544 1071Q1772 1071 1933 910Q2075 767 2081 572L1175 573L1175 256Z"  horiz-adv-x="2171" vert-adv-y="2048"  />

      
      <glyph glyph-name="unie7" unicode="&#xe7;" d="M544-20Q377 7 251 133Q90 294 90 522Q90 749 251 910Q412 1071 639 1071Q867 1071 1028 910Q1061 877 1087 842L992 807Q977 825 960 843Q827 975 639 975Q452 975 319 842.50Q186 710 186 522Q186 334 319 201Q452 68 639 68Q827 68 960 201Q977 218 992 236L1087 202Q1061 166 1028 133Q867-28 639-28Q626-28 613-27L613-29L612-35L613-35L610-75Q624-82 638-90Q698-129 706-184Q707-191 707-198Q707-243 664-276Q613-315 534-315Q500-315 470-308L481-253Q502-260 527-260Q572-260 601-237Q626-218 626-191L626-184Q621-152 586-129Q551-108 509-107L544-20Z"  horiz-adv-x="1177" vert-adv-y="2048"  />

      
      <glyph glyph-name="unie8" unicode="&#xe8;" d="M337 184Q464 68 639 68Q827 68 960 201Q977 218 992 236L1087 202Q1061 166 1028 133Q867-28 639-28Q412-28 251 133Q90 294 90 522Q90 749 251 910Q412 1071 639 1071Q834 1071 980 954Q1004 934 1028 910Q1037 901 1045 892L977 824L337 184M911 885Q794 975 639 975Q452 975 319 842.50Q186 710 186 522Q186 367 276 250L911 885M535 1387L698 1200L614 1200L369 1387L535 1387Z"  horiz-adv-x="1177" vert-adv-y="2048"  />

      
      <glyph glyph-name="unie9" unicode="&#xe9;" d="M337 184Q464 68 639 68Q827 68 960 201Q977 218 992 236L1087 202Q1061 166 1028 133Q867-28 639-28Q412-28 251 133Q90 294 90 522Q90 749 251 910Q412 1071 639 1071Q834 1071 980 954Q1004 934 1028 910Q1037 901 1045 892L977 824L337 184M911 885Q794 975 639 975Q452 975 319 842.50Q186 710 186 522Q186 367 276 250L911 885M808 1387L563 1200L479 1200L642 1387L808 1387Z"  horiz-adv-x="1177" vert-adv-y="2048"  />

      
      <glyph glyph-name="uniea" unicode="&#xea;" d="M337 184Q464 68 639 68Q827 68 960 201Q977 218 992 236L1087 202Q1061 166 1028 133Q867-28 639-28Q412-28 251 133Q90 294 90 522Q90 749 251 910Q412 1071 639 1071Q834 1071 980 954Q1004 934 1028 910Q1037 901 1045 892L977 824L337 184M911 885Q794 975 639 975Q452 975 319 842.50Q186 710 186 522Q186 367 276 250L911 885M636 1324L874 1090L770 1090L584 1233L408 1090L303 1090L532 1324L636 1324Z"  horiz-adv-x="1177" vert-adv-y="2048"  />

      
      <glyph glyph-name="unieb" unicode="&#xeb;" d="M337 184Q464 68 639 68Q827 68 960 201Q977 218 992 236L1087 202Q1061 166 1028 133Q867-28 639-28Q412-28 251 133Q90 294 90 522Q90 749 251 910Q412 1071 639 1071Q834 1071 980 954Q1004 934 1028 910Q1037 901 1045 892L977 824L337 184M911 885Q794 975 639 975Q452 975 319 842.50Q186 710 186 522Q186 367 276 250L911 885M439 1330Q476 1330 502.50 1304Q529 1278 529 1241Q529 1203 502.50 1177Q476 1151 439 1151Q402 1151 375.50 1177Q349 1203 349 1241Q349 1278 375.50 1304Q402 1330 439 1330M739 1330Q776 1330 802.50 1304Q829 1278 829 1241Q829 1203 802.50 1177Q776 1151 739 1151Q702 1151 675.50 1177Q649 1203 649 1241Q649 1278 675.50 1304Q702 1330 739 1330Z"  horiz-adv-x="1177" vert-adv-y="2048"  />

      
      <glyph glyph-name="uniec" unicode="&#xec;" d="M260 982L260 0L170 0L170 982L260 982M162 1387L325 1200L241 1200L-4 1387L162 1387Z"  horiz-adv-x="430" vert-adv-y="2048"  />

      
      <glyph glyph-name="unied" unicode="&#xed;" d="M260 982L260 0L170 0L170 982L260 982M434 1387L189 1200L105 1200L268 1387L434 1387Z"  horiz-adv-x="430" vert-adv-y="2048"  />

      
      <glyph glyph-name="uniee" unicode="&#xee;" d="M261 982L261 0L171 0L171 982L261 982M263 1324L501 1090L397 1090L211 1233L35 1090L-70 1090L159 1324L263 1324Z"  horiz-adv-x="430" vert-adv-y="2048"  />

      
      <glyph glyph-name="unief" unicode="&#xef;" d="M260 982L260 0L170 0L170 982L260 982M65 1330Q102 1330 128.50 1304Q155 1278 155 1241Q155 1203 128.50 1177Q102 1151 65 1151Q28 1151 1.50 1177Q-25 1203-25 1241Q-25 1278 1.50 1304Q28 1330 65 1330M365 1330Q402 1330 428.50 1304Q455 1278 455 1241Q455 1203 428.50 1177Q402 1151 365 1151Q328 1151 301.50 1177Q275 1203 275 1241Q275 1278 301.50 1304Q328 1330 365 1330Z"  horiz-adv-x="430" vert-adv-y="2048"  />

      
      <glyph glyph-name="unif0" unicode="&#xf0;" d="M318 842Q318 842 251.50 775.50Q185 709 185 521Q185 333 318 200.50Q451 68 639 68Q827 68 960 200.50Q1093 333 1093 521Q1093 709 960 842Q827 975 639 975Q451 975 318 842M957 971Q994 944 1028 910Q1188 749 1188 521Q1188 294 1027.50 133Q867-28 639-28Q412-28 251 133Q90 294 90 521Q90 749 251 910Q412 1071 639 1071Q672 1071 704 1068L650 1128L482 1128L482 1218L569 1218L465 1333L593 1333L708 1218L872 1218L872 1128L799 1128L957 971Z"  horiz-adv-x="1278" vert-adv-y="2048"  />

      
      <glyph glyph-name="unif1" unicode="&#xf1;" d="M240 763L240 0L150 0L150 982L240 982L240 919Q363 1041 526 1041Q700 1041 809 932Q918 823 921 657L921 0L831 0L831 649Q831 774 740.50 862.50Q650 951 526 951Q402 951 312 864Q263 815 240 763M530 1255Q605 1195 654 1195L659 1195Q709 1198 729 1279L798 1279Q777 1150 699 1127Q678 1121 657 1121Q600 1121 542 1167Q467 1226 418 1226L413 1226Q363 1223 343 1142L273 1142Q295 1271 373 1294Q394 1300 415 1300Q472 1300 530 1255Z"  horiz-adv-x="1071" vert-adv-y="2048"  />

      
      <glyph glyph-name="unif2" unicode="&#xf2;" d="M639 1071Q867 1071 1027.50 910Q1188 749 1188 521Q1188 294 1027.50 133Q867-28 639-28Q412-28 251 133Q90 294 90 521Q90 749 251 910Q412 1071 639 1071M639 975Q451 975 318 842Q185 709 185 521Q185 333 318 200.50Q451 68 639 68Q827 68 960 200.50Q1093 333 1093 521Q1093 709 960 842Q827 975 639 975M586 1387L749 1200L665 1200L420 1387L586 1387Z"  horiz-adv-x="1278" vert-adv-y="2048"  />

      
      <glyph glyph-name="unif3" unicode="&#xf3;" d="M639 1071Q867 1071 1027.50 910Q1188 749 1188 521Q1188 294 1027.50 133Q867-28 639-28Q412-28 251 133Q90 294 90 521Q90 749 251 910Q412 1071 639 1071M639 975Q451 975 318 842Q185 709 185 521Q185 333 318 200.50Q451 68 639 68Q827 68 960 200.50Q1093 333 1093 521Q1093 709 960 842Q827 975 639 975M858 1387L613 1200L529 1200L692 1387L858 1387Z"  horiz-adv-x="1278" vert-adv-y="2048"  />

      
      <glyph glyph-name="unif4" unicode="&#xf4;" d="M639 1071Q867 1071 1027.50 910Q1188 749 1188 521Q1188 294 1027.50 133Q867-28 639-28Q412-28 251 133Q90 294 90 521Q90 749 251 910Q412 1071 639 1071M639 975Q451 975 318 842Q185 709 185 521Q185 333 318 200.50Q451 68 639 68Q827 68 960 200.50Q1093 333 1093 521Q1093 709 960 842Q827 975 639 975M687 1324L925 1090L821 1090L635 1233L459 1090L354 1090L583 1324L687 1324Z"  horiz-adv-x="1278" vert-adv-y="2048"  />

      
      <glyph glyph-name="unif5" unicode="&#xf5;" d="M639 1071Q867 1071 1027.50 910Q1188 749 1188 521Q1188 294 1027.50 133Q867-28 639-28Q412-28 251 133Q90 294 90 521Q90 749 251 910Q412 1071 639 1071M639 975Q451 975 318 842Q185 709 185 521Q185 333 318 200.50Q451 68 639 68Q827 68 960 200.50Q1093 333 1093 521Q1093 709 960 842Q827 975 639 975M634 1255Q709 1195 758 1195L763 1195Q813 1198 833 1279L902 1279Q881 1150 803 1127Q782 1121 761 1121Q704 1121 646 1167Q571 1226 522 1226L517 1226Q467 1223 447 1142L377 1142Q399 1271 477 1294Q498 1300 519 1300Q576 1300 634 1255Z"  horiz-adv-x="1278" vert-adv-y="2048"  />

      
      <glyph glyph-name="unif6" unicode="&#xf6;" d="M639 1071Q867 1071 1027.50 910Q1188 749 1188 521Q1188 294 1027.50 133Q867-28 639-28Q412-28 251 133Q90 294 90 521Q90 749 251 910Q412 1071 639 1071M639 975Q451 975 318 842Q185 709 185 521Q185 333 318 200.50Q451 68 639 68Q827 68 960 200.50Q1093 333 1093 521Q1093 709 960 842Q827 975 639 975M489 1330Q526 1330 552.50 1304Q579 1278 579 1241Q579 1203 552.50 1177Q526 1151 489 1151Q452 1151 425.50 1177Q399 1203 399 1241Q399 1278 425.50 1304Q452 1330 489 1330M789 1330Q826 1330 852.50 1304Q879 1278 879 1241Q879 1203 852.50 1177Q826 1151 789 1151Q752 1151 725.50 1177Q699 1203 699 1241Q699 1278 725.50 1304Q752 1330 789 1330Z"  horiz-adv-x="1278" vert-adv-y="2048"  />

      
      <glyph glyph-name="unif7" unicode="&#xf7;" d="M125 659L925 659L925 569L125 569L125 659M525 903Q562 903 588.50 877Q615 851 615 814Q615 776 588.50 750Q562 724 525 724Q488 724 461.50 750Q435 776 435 814Q435 851 461.50 877Q488 903 525 903M525 503Q562 503 588.50 477Q615 451 615 414Q615 376 588.50 350Q562 324 525 324Q488 324 461.50 350Q435 376 435 414Q435 451 461.50 477Q488 503 525 503Z"  horiz-adv-x="1050" vert-adv-y="2048"  />

      
      <glyph glyph-name="unif8" unicode="&#xf8;" d="M827 937Q741 976 639 976Q451 976 318 843Q185 710 185 522Q185 334 318 202Q345 174 375 153L827 937M904 891L451 108Q537 69 639 69Q827 69 960 201.50Q1093 334 1093 522Q1093 710 960 843Q933 870 904 891M327 70Q287 98 251 134Q90 295 90 522Q90 750 251 911Q412 1072 639 1072Q768 1072 876 1020L998 1232L1077 1191L952 975Q992 947 1028 911Q1188 750 1188 522Q1188 295 1027.50 134Q867-27 639-27Q510-27 403 25L280-188L201-150L327 70Z"  horiz-adv-x="1278" vert-adv-y="2048"  />

      
      <glyph glyph-name="unif9" unicode="&#xf9;" d="M555-14Q371-14 262 95Q153 204 150 370L150 982L240 982L240 378Q240 253 331 165Q421 76 554 76Q678 76 768.50 164.50Q859 253 859 378L859 982L949 982L949 370Q946 204 837 95Q728-14 555-14M496 1387L659 1200L575 1200L330 1387L496 1387Z"  horiz-adv-x="1099" vert-adv-y="2048"  />

      
      <glyph glyph-name="unifa" unicode="&#xfa;" d="M555-14Q371-14 262 95Q153 204 150 370L150 982L240 982L240 378Q240 253 331 165Q421 76 554 76Q678 76 768.50 164.50Q859 253 859 378L859 982L949 982L949 370Q946 204 837 95Q728-14 555-14M769 1387L524 1200L440 1200L603 1387L769 1387Z"  horiz-adv-x="1099" vert-adv-y="2048"  />

      
      <glyph glyph-name="unifb" unicode="&#xfb;" d="M555-14Q371-14 262 95Q153 204 150 370L150 982L240 982L240 378Q240 253 331 165Q421 76 554 76Q678 76 768.50 164.50Q859 253 859 378L859 982L949 982L949 370Q946 204 837 95Q728-14 555-14M597 1324L835 1090L731 1090L545 1233L369 1090L264 1090L493 1324L597 1324Z"  horiz-adv-x="1099" vert-adv-y="2048"  />

      
      <glyph glyph-name="unifc" unicode="&#xfc;" d="M555-14Q371-14 262 95Q153 204 150 370L150 982L240 982L240 378Q240 253 331 165Q421 76 554 76Q678 76 768.50 164.50Q859 253 859 378L859 982L949 982L949 370Q946 204 837 95Q728-14 555-14M400 1330Q437 1330 463.50 1304Q490 1278 490 1241Q490 1203 463.50 1177Q437 1151 400 1151Q363 1151 336.50 1177Q310 1203 310 1241Q310 1278 336.50 1304Q363 1330 400 1330M700 1330Q737 1330 763.50 1304Q790 1278 790 1241Q790 1203 763.50 1177Q737 1151 700 1151Q663 1151 636.50 1177Q610 1203 610 1241Q610 1278 636.50 1304Q663 1330 700 1330Z"  horiz-adv-x="1099" vert-adv-y="2048"  />

      
      <glyph glyph-name="unifd" unicode="&#xfd;" d="M503 88L281-375L193-375L458 181L75 982L177 982L503 278L829 982L930 982L503 87L503 88M722 1387L477 1200L393 1200L556 1387L722 1387Z"  horiz-adv-x="1005" vert-adv-y="2048"  />

      
      <glyph glyph-name="unife" unicode="&#xfe;" d="M240 844Q265 878 297 910Q458 1070 685 1070Q913 1070 1073.50 909.50Q1234 749 1234 521Q1234 294 1073.50 133Q913-28 685-28Q458-28 297 133Q265 165 240 199L240-375L150-375L150 1600L240 1600L240 844M240 427Q266 298 364 200Q497 67 685 67Q873 67 1006 200Q1139 333 1139 521Q1139 709 1006 842Q873 975 685 975Q497 975 364 842Q266 744 240 615L240 427Z"  horiz-adv-x="1334" vert-adv-y="2048"  />

      
      <glyph glyph-name="uniff" unicode="&#xff;" d="M503 88L281-375L193-375L458 181L75 982L177 982L503 278L829 982L930 982L503 87L503 88M353 1330Q390 1330 416.50 1304Q443 1278 443 1241Q443 1203 416.50 1177Q390 1151 353 1151Q316 1151 289.50 1177Q263 1203 263 1241Q263 1278 289.50 1304Q316 1330 353 1330M653 1330Q690 1330 716.50 1304Q743 1278 743 1241Q743 1203 716.50 1177Q690 1151 653 1151Q616 1151 589.50 1177Q563 1203 563 1241Q563 1278 589.50 1304Q616 1330 653 1330Z"  horiz-adv-x="1005" vert-adv-y="2048"  />

      
      <glyph glyph-name="uni0100" unicode="&#x0100;" d="M890 703L646 1374L402 703L890 703M923 613L369 613L146 0L50 0L646 1637L1241 0L1146 0L923 613M351 1845L941 1845L941 1775L351 1775L351 1845Z"  horiz-adv-x="1291" vert-adv-y="2048"  />

      
      <glyph glyph-name="uni0101" unicode="&#x0101;" d="M1210 0L1120 0L1120 200Q1094 165 1063 133Q902-28 674-28Q447-28 286 133Q125 294 125 521Q125 749 286 910Q447 1071 674 1071Q902 1071 1063 910Q1094 878 1120 843L1120 982L1210 982L1210 0M1120 432L1120 610Q1095 742 995 842Q862 975 674 975Q486 975 353 842Q220 709 220 521Q220 333 353 200.50Q486 68 674 68Q862 68 995 201Q1095 301 1120 432M373 1227L963 1227L963 1157L373 1157L373 1227Z"  horiz-adv-x="1360" vert-adv-y="2048"  />

      
      <glyph glyph-name="uni0102" unicode="&#x0102;" d="M890 703L646 1374L402 703L890 703M923 613L369 613L146 0L50 0L646 1637L1241 0L1146 0L923 613M485 1956Q493 1903 531 1865Q579 1817 647 1817Q714 1817 762 1865Q801 1903 808 1956L881 1956Q873 1873 813 1813Q745 1744 647 1744Q548 1744 480 1813Q415 1879 411 1956L485 1956Z"  horiz-adv-x="1291" vert-adv-y="2048"  />

      
      <glyph glyph-name="uni0103" unicode="&#x0103;" d="M1210 0L1120 0L1120 200Q1094 165 1063 133Q902-28 674-28Q447-28 286 133Q125 294 125 521Q125 749 286 910Q447 1071 674 1071Q902 1071 1063 910Q1094 878 1120 843L1120 982L1210 982L1210 0M1120 432L1120 610Q1095 742 995 842Q862 975 674 975Q486 975 353 842Q220 709 220 521Q220 333 353 200.50Q486 68 674 68Q862 68 995 201Q1095 301 1120 432M507 1338Q515 1285 553 1247Q601 1199 669 1199Q736 1199 784 1247Q823 1285 830 1338L903 1338Q895 1255 835 1195Q767 1126 669 1126Q570 1126 502 1195Q437 1261 433 1338L507 1338Z"  horiz-adv-x="1360" vert-adv-y="2048"  />

      
      <glyph glyph-name="uni0104" unicode="&#x0104;" d="M890 703L646 1374L402 703L890 703M1131 41L923 613L369 613L146 0L50 0L646 1637L1241 0L1146 0Q1071-38 1061-102Q1059-120 1059-136Q1059-184 1081-210Q1111-246 1161-246Q1191-246 1219-232L1241-282Q1185-305 1130-305Q1057-305 1013-256Q978-217 978-160Q978-146 980-131Q994-32 1131 41Z"  horiz-adv-x="1291" vert-adv-y="2048"  />

      
      <glyph glyph-name="uni0105" unicode="&#x0105;" d="M1120 432L1120 610Q1095 742 995 842Q862 975 674 975Q486 975 353 842Q220 709 220 521Q220 333 353 200.50Q486 68 674 68Q862 68 995 201Q1095 301 1120 432M1120 46L1120 200Q1094 165 1063 133Q902-28 674-28Q447-28 286 133Q125 294 125 521Q125 749 286 910Q447 1071 674 1071Q902 1071 1063 910Q1094 878 1120 843L1120 982L1210 982L1210 0L1120 0Q1049-39 1040-102Q1038-120 1038-136Q1038-184 1060-210Q1090-246 1140-246Q1170-246 1198-232L1220-282Q1164-305 1109-305Q1036-305 992-256Q957-217 957-160Q957-146 959-131Q974-28 1120 46Z"  horiz-adv-x="1360" vert-adv-y="2048"  />

      
      <glyph glyph-name="uni0106" unicode="&#x0106;" d="M1427 255L1495 194Q1261-19 944-19Q604-19 364.50 220.50Q125 460 125 800Q125 1139 364.50 1379Q604 1619 944 1619Q1261 1619 1495 1406L1427 1344Q1221 1527 944 1527Q643 1527 430 1314Q217 1101 217 800Q217 498 430 285Q643 72 944 72Q1221 72 1427 255M1129 2005L884 1818L800 1818L963 2005L1129 2005Z"  horiz-adv-x="1595" vert-adv-y="2048"  />

      
      <glyph glyph-name="uni0107" unicode="&#x0107;" d="M992 236L1087 202Q1061 166 1028 133Q867-28 639-28Q412-28 251 133Q90 294 90 522Q90 749 251 910Q412 1071 639 1071Q867 1071 1028 910Q1061 877 1087 842L992 807Q977 825 960 843Q827 975 639 975Q452 975 319 842.50Q186 710 186 522Q186 334 319 201Q452 68 639 68Q827 68 960 201Q977 218 992 236M858 1387L613 1200L529 1200L692 1387L858 1387Z"  horiz-adv-x="1177" vert-adv-y="2048"  />

      
      <glyph glyph-name="uni0108" unicode="&#x0108;" d="M1427 255L1495 194Q1261-19 944-19Q604-19 364.50 220.50Q125 460 125 800Q125 1139 364.50 1379Q604 1619 944 1619Q1261 1619 1495 1406L1427 1344Q1221 1527 944 1527Q643 1527 430 1314Q217 1101 217 800Q217 498 430 285Q643 72 944 72Q1221 72 1427 255M958 1942L1196 1708L1092 1708L906 1851L730 1708L625 1708L854 1942L958 1942Z"  horiz-adv-x="1595" vert-adv-y="2048"  />

      
      <glyph glyph-name="uni0109" unicode="&#x0109;" d="M992 236L1087 202Q1061 166 1028 133Q867-28 639-28Q412-28 251 133Q90 294 90 522Q90 749 251 910Q412 1071 639 1071Q867 1071 1028 910Q1061 877 1087 842L992 807Q977 825 960 843Q827 975 639 975Q452 975 319 842.50Q186 710 186 522Q186 334 319 201Q452 68 639 68Q827 68 960 201Q977 218 992 236M686 1324L924 1090L820 1090L634 1233L458 1090L353 1090L582 1324L686 1324Z"  horiz-adv-x="1177" vert-adv-y="2048"  />

      
      <glyph glyph-name="uni010A" unicode="&#x010A;" d="M1427 255L1495 194Q1261-19 944-19Q604-19 364.50 220.50Q125 460 125 800Q125 1139 364.50 1379Q604 1619 944 1619Q1261 1619 1495 1406L1427 1344Q1221 1527 944 1527Q643 1527 430 1314Q217 1101 217 800Q217 498 430 285Q643 72 944 72Q1221 72 1427 255M941 1921Q972 1921 994.50 1899Q1017 1877 1017 1845Q1017 1813 994.50 1791Q972 1769 941 1769Q909 1769 886.50 1791Q864 1813 864 1845Q864 1877 886.50 1899Q909 1921 941 1921Z"  horiz-adv-x="1595" vert-adv-y="2048"  />

      
      <glyph glyph-name="uni010B" unicode="&#x010B;" d="M992 236L1087 202Q1061 166 1028 133Q867-28 639-28Q412-28 251 133Q90 294 90 522Q90 749 251 910Q412 1071 639 1071Q867 1071 1028 910Q1061 877 1087 842L992 807Q977 825 960 843Q827 975 639 975Q452 975 319 842.50Q186 710 186 522Q186 334 319 201Q452 68 639 68Q827 68 960 201Q977 218 992 236M639 1303Q670 1303 692.50 1281Q715 1259 715 1227Q715 1195 692.50 1173Q670 1151 639 1151Q607 1151 584.50 1173Q562 1195 562 1227Q562 1259 584.50 1281Q607 1303 639 1303Z"  horiz-adv-x="1177" vert-adv-y="2048"  />

      
      <glyph glyph-name="uni010C" unicode="&#x010C;" d="M1427 255L1495 194Q1261-19 944-19Q604-19 364.50 220.50Q125 460 125 800Q125 1139 364.50 1379Q604 1619 944 1619Q1261 1619 1495 1406L1427 1344Q1221 1527 944 1527Q643 1527 430 1314Q217 1101 217 800Q217 498 430 285Q643 72 944 72Q1221 72 1427 255M754 1708L525 1942L630 1942L806 1799L992 1942L1096 1942L858 1708L754 1708Z"  horiz-adv-x="1595" vert-adv-y="2048"  />

      
      <glyph glyph-name="uni010D" unicode="&#x010D;" d="M992 236L1087 202Q1061 166 1028 133Q867-28 639-28Q412-28 251 133Q90 294 90 522Q90 749 251 910Q412 1071 639 1071Q867 1071 1028 910Q1061 877 1087 842L992 807Q977 825 960 843Q827 975 639 975Q452 975 319 842.50Q186 710 186 522Q186 334 319 201Q452 68 639 68Q827 68 960 201Q977 218 992 236M532 1090L303 1324L408 1324L584 1181L770 1324L874 1324L636 1090L532 1090Z"  horiz-adv-x="1177" vert-adv-y="2048"  />

      
      <glyph glyph-name="uni010E" unicode="&#x010E;" d="M240 1506L240 93L247 93Q603 93 794 285Q1007 498 1007 800Q1007 1101 794 1315Q603 1506 247 1506L240 1506M240 1598L247 1598Q642 1598 859 1380Q1099 1139 1099 800Q1099 460 859 220Q642 2 247 2L240 2L240 0L150 0L150 1600L240 1600L240 1598M568 1608L339 1842L444 1842L620 1699L806 1842L910 1842L672 1608L568 1608Z"  horiz-adv-x="1199" vert-adv-y="2048"  />

      
      <glyph glyph-name="uni010F" unicode="&#x010F;" d="M1210 0L1120 0L1120 200Q1094 165 1063 133Q902-28 674-28Q447-28 286 133Q125 294 125 521Q125 749 286 910Q447 1071 674 1071Q902 1071 1063 910Q1094 878 1120 843L1120 1600L1210 1600L1210 0M1120 432L1120 610Q1095 742 995 842Q862 975 674 975Q486 975 353 842Q220 709 220 521Q220 333 353 200.50Q486 68 674 68Q862 68 995 201Q1095 301 1120 432M1357 1427Q1334 1432 1317 1450Q1290 1476 1290 1514Q1290 1551 1316.50 1577Q1343 1603 1380 1603Q1417 1603 1443.50 1577Q1470 1551 1470 1514Q1470 1493 1463 1475L1365 1277L1300 1277L1357 1427Z"  horiz-adv-x="1470" vert-adv-y="2048"  />

      
      <glyph glyph-name="uni0110" unicode="&#x0110;" d="M210 845L210 1600L300 1600L300 1598L307 1598Q702 1598 919 1380Q1159 1139 1159 800Q1159 460 919 220Q702 2 307 2L300 2L300 0L210 0L210 755L50 755L50 845L210 845M300 845L670 845L670 755L300 755L300 93L307 93Q663 93 854 285Q1067 498 1067 800Q1067 1101 854 1315Q663 1506 307 1506L300 1506L300 845Z"  horiz-adv-x="1284" vert-adv-y="2048"  />

      
      <glyph glyph-name="uni0111" unicode="&#x0111;" d="M1120 432L1120 610Q1095 742 995 842Q862 975 674 975Q486 975 353 842Q220 709 220 521Q220 333 353 200.50Q486 68 674 68Q862 68 995 201Q1095 301 1120 432M1210 1283L1210 0L1120 0L1120 200Q1094 165 1063 133Q902-28 674-28Q447-28 286 133Q125 294 125 521Q125 749 286 910Q447 1071 674 1071Q902 1071 1063 910Q1094 878 1120 843L1120 1283L829 1283L829 1373L1120 1373L1120 1600L1210 1600L1210 1373L1309 1373L1309 1283L1210 1283Z"  horiz-adv-x="1360" vert-adv-y="2048"  />

      
      <glyph glyph-name="uni0112" unicode="&#x0112;" d="M950 1600L950 1510L240 1510L240 845L950 845L950 755L240 755L240 90L950 90L950 0L150 0L150 1600L950 1600M255 1845L845 1845L845 1775L255 1775L255 1845Z"  horiz-adv-x="1075" vert-adv-y="2048"  />

      
      <glyph glyph-name="uni0113" unicode="&#x0113;" d="M337 184Q464 68 639 68Q827 68 960 201Q977 218 992 236L1087 202Q1061 166 1028 133Q867-28 639-28Q412-28 251 133Q90 294 90 522Q90 749 251 910Q412 1071 639 1071Q834 1071 980 954Q1004 934 1028 910Q1037 901 1045 892L977 824L337 184M911 885Q794 975 639 975Q452 975 319 842.50Q186 710 186 522Q186 367 276 250L911 885M294 1227L884 1227L884 1157L294 1157L294 1227Z"  horiz-adv-x="1177" vert-adv-y="2048"  />

      
      <glyph glyph-name="uni0114" unicode="&#x0114;" d="M950 1600L950 1510L240 1510L240 845L950 845L950 755L240 755L240 90L950 90L950 0L150 0L150 1600L950 1600M389 1956Q397 1903 435 1865Q483 1817 551 1817Q618 1817 666 1865Q705 1903 712 1956L785 1956Q777 1873 717 1813Q649 1744 551 1744Q452 1744 384 1813Q319 1879 315 1956L389 1956Z"  horiz-adv-x="1075" vert-adv-y="2048"  />

      
      <glyph glyph-name="uni0115" unicode="&#x0115;" d="M337 184Q464 68 639 68Q827 68 960 201Q977 218 992 236L1087 202Q1061 166 1028 133Q867-28 639-28Q412-28 251 133Q90 294 90 522Q90 749 251 910Q412 1071 639 1071Q834 1071 980 954Q1004 934 1028 910Q1037 901 1045 892L977 824L337 184M911 885Q794 975 639 975Q452 975 319 842.50Q186 710 186 522Q186 367 276 250L911 885M428 1338Q436 1285 474 1247Q522 1199 590 1199Q657 1199 705 1247Q744 1285 751 1338L824 1338Q816 1255 756 1195Q688 1126 590 1126Q491 1126 423 1195Q358 1261 354 1338L428 1338Z"  horiz-adv-x="1177" vert-adv-y="2048"  />

      
      <glyph glyph-name="uni0116" unicode="&#x0116;" d="M950 1600L950 1510L240 1510L240 845L950 845L950 755L240 755L240 90L950 90L950 0L150 0L150 1600L950 1600M551 1921Q582 1921 604.50 1899Q627 1877 627 1845Q627 1813 604.50 1791Q582 1769 551 1769Q519 1769 496.50 1791Q474 1813 474 1845Q474 1877 496.50 1899Q519 1921 551 1921Z"  horiz-adv-x="1075" vert-adv-y="2048"  />

      
      <glyph glyph-name="uni0117" unicode="&#x0117;" d="M337 184Q464 68 639 68Q827 68 960 201Q977 218 992 236L1087 202Q1061 166 1028 133Q867-28 639-28Q412-28 251 133Q90 294 90 522Q90 749 251 910Q412 1071 639 1071Q834 1071 980 954Q1004 934 1028 910Q1037 901 1045 892L977 824L337 184M911 885Q794 975 639 975Q452 975 319 842.50Q186 710 186 522Q186 367 276 250L911 885M589 1303Q620 1303 642.50 1281Q665 1259 665 1227Q665 1195 642.50 1173Q620 1151 589 1151Q557 1151 534.50 1173Q512 1195 512 1227Q512 1259 534.50 1281Q557 1303 589 1303Z"  horiz-adv-x="1177" vert-adv-y="2048"  />

      
      <glyph glyph-name="uni0118" unicode="&#x0118;" d="M776 0L150 0L150 1600L950 1600L950 1510L240 1510L240 845L950 845L950 755L240 755L240 90L950 90L950 0L843 0Q779-42 770-102Q768-120 768-136Q768-184 790-210Q820-246 870-246Q900-246 928-232L950-282Q894-305 839-305Q766-305 722-256Q687-217 687-160Q687-146 689-131Q699-58 776 0Z"  horiz-adv-x="1075" vert-adv-y="2048"  />

      
      <glyph glyph-name="uni0119" unicode="&#x0119;" d="M911 885Q794 975 639 975Q452 975 319 842.50Q186 710 186 522Q186 367 276 250L911 885M894 28Q761-28 639-28Q412-28 251 133Q90 294 90 522Q90 749 251 910Q412 1071 639 1071Q834 1071 980 954Q1004 934 1028 910Q1037 901 1045 892L977 824L337 184Q464 68 639 68Q827 68 960 201Q977 218 992 236L1087 202Q1061 166 1028 133Q992 97 954 70Q887-38 877-103Q875-121 875-137Q875-185 897-211Q927-247 977-247Q1007-247 1035-233L1057-283Q1001-306 946-306Q873-306 829-257Q794-218 794-161Q794-147 796-132Q805-67 894 28Z"  horiz-adv-x="1177" vert-adv-y="2048"  />

      
      <glyph glyph-name="uni011A" unicode="&#x011A;" d="M950 1600L950 1510L240 1510L240 845L950 845L950 755L240 755L240 90L950 90L950 0L150 0L150 1600L950 1600M494 1708L265 1942L370 1942L546 1799L732 1942L836 1942L598 1708L494 1708Z"  horiz-adv-x="1075" vert-adv-y="2048"  />

      
      <glyph glyph-name="uni011B" unicode="&#x011B;" d="M337 184Q464 68 639 68Q827 68 960 201Q977 218 992 236L1087 202Q1061 166 1028 133Q867-28 639-28Q412-28 251 133Q90 294 90 522Q90 749 251 910Q412 1071 639 1071Q834 1071 980 954Q1004 934 1028 910Q1037 901 1045 892L977 824L337 184M911 885Q794 975 639 975Q452 975 319 842.50Q186 710 186 522Q186 367 276 250L911 885M532 1090L303 1324L408 1324L584 1181L770 1324L874 1324L636 1090L532 1090Z"  horiz-adv-x="1177" vert-adv-y="2048"  />

      
      <glyph glyph-name="uni011C" unicode="&#x011C;" d="M1489 199Q1261-19 944-19Q604-19 364.50 220.50Q125 460 125 800Q125 1139 364.50 1379Q604 1619 944 1619Q1261 1619 1495 1406L1427 1344Q1221 1527 944 1527Q643 1527 430 1314Q217 1101 217 800Q217 498 430 285Q643 72 944 72Q1202 72 1399 231L1399 719L1489 719L1489 199M958 1942L1196 1708L1092 1708L906 1851L730 1708L625 1708L854 1942L958 1942Z"  horiz-adv-x="1620" vert-adv-y="2048"  />

      
      <glyph glyph-name="uni011D" unicode="&#x011D;" d="M1119 615Q1093 744 995 842Q862 975 674 975Q486 975 353 842Q220 709 220 521Q220 333 353 200Q486 67 674 67Q862 67 995 200Q1092 297 1119 425L1119 615M1117 195Q1092 163 1063 133Q902-28 674-28Q447-28 286 133Q125 294 125 521Q125 749 286 909.50Q447 1070 674 1070Q902 1070 1063 910Q1094 878 1120 843L1120 982L1210 982L1210 219Q1210-2 1053-159Q892-320 665-320Q437-320 276-159Q243-126 217-90L312-56Q327-74 344-91Q477-224 665-224Q852-224 985-91Q1106 30 1117 195M715 1324L953 1090L849 1090L663 1233L487 1090L382 1090L611 1324L715 1324Z"  horiz-adv-x="1364" vert-adv-y="2048"  />

      
      <glyph glyph-name="uni011E" unicode="&#x011E;" d="M1489 199Q1261-19 944-19Q604-19 364.50 220.50Q125 460 125 800Q125 1139 364.50 1379Q604 1619 944 1619Q1261 1619 1495 1406L1427 1344Q1221 1527 944 1527Q643 1527 430 1314Q217 1101 217 800Q217 498 430 285Q643 72 944 72Q1202 72 1399 231L1399 719L1489 719L1489 199M789 1956Q797 1903 835 1865Q883 1817 951 1817Q1018 1817 1066 1865Q1105 1903 1112 1956L1185 1956Q1177 1873 1117 1813Q1049 1744 951 1744Q852 1744 784 1813Q719 1879 715 1956L789 1956Z"  horiz-adv-x="1620" vert-adv-y="2048"  />

      
      <glyph glyph-name="uni011F" unicode="&#x011F;" d="M1119 615Q1093 744 995 842Q862 975 674 975Q486 975 353 842Q220 709 220 521Q220 333 353 200Q486 67 674 67Q862 67 995 200Q1092 297 1119 425L1119 615M1117 195Q1092 163 1063 133Q902-28 674-28Q447-28 286 133Q125 294 125 521Q125 749 286 909.50Q447 1070 674 1070Q902 1070 1063 910Q1094 878 1120 843L1120 982L1210 982L1210 219Q1210-2 1053-159Q892-320 665-320Q437-320 276-159Q243-126 217-90L312-56Q327-74 344-91Q477-224 665-224Q852-224 985-91Q1106 30 1117 195M507 1338Q515 1285 553 1247Q601 1199 669 1199Q736 1199 784 1247Q823 1285 830 1338L903 1338Q895 1255 835 1195Q767 1126 669 1126Q570 1126 502 1195Q437 1261 433 1338L507 1338Z"  horiz-adv-x="1364" vert-adv-y="2048"  />

      
      <glyph glyph-name="uni0120" unicode="&#x0120;" d="M1489 199Q1261-19 944-19Q604-19 364.50 220.50Q125 460 125 800Q125 1139 364.50 1379Q604 1619 944 1619Q1261 1619 1495 1406L1427 1344Q1221 1527 944 1527Q643 1527 430 1314Q217 1101 217 800Q217 498 430 285Q643 72 944 72Q1202 72 1399 231L1399 719L1489 719L1489 199M941 1921Q972 1921 994.50 1899Q1017 1877 1017 1845Q1017 1813 994.50 1791Q972 1769 941 1769Q909 1769 886.50 1791Q864 1813 864 1845Q864 1877 886.50 1899Q909 1921 941 1921Z"  horiz-adv-x="1620" vert-adv-y="2048"  />

      
      <glyph glyph-name="uni0121" unicode="&#x0121;" d="M1119 615Q1093 744 995 842Q862 975 674 975Q486 975 353 842Q220 709 220 521Q220 333 353 200Q486 67 674 67Q862 67 995 200Q1092 297 1119 425L1119 615M1117 195Q1092 163 1063 133Q902-28 674-28Q447-28 286 133Q125 294 125 521Q125 749 286 909.50Q447 1070 674 1070Q902 1070 1063 910Q1094 878 1120 843L1120 982L1210 982L1210 219Q1210-2 1053-159Q892-320 665-320Q437-320 276-159Q243-126 217-90L312-56Q327-74 344-91Q477-224 665-224Q852-224 985-91Q1106 30 1117 195M668 1303Q699 1303 721.50 1281Q744 1259 744 1227Q744 1195 721.50 1173Q699 1151 668 1151Q636 1151 613.50 1173Q591 1195 591 1227Q591 1259 613.50 1281Q636 1303 668 1303Z"  horiz-adv-x="1364" vert-adv-y="2048"  />

      
      <glyph glyph-name="uni0122" unicode="&#x0122;" d="M773-3Q541 44 365 221Q125 460 125 800Q125 1139 364.50 1379Q604 1619 944 1619Q1261 1619 1495 1406L1427 1344Q1221 1527 944 1527Q643 1527 430 1314Q217 1101 217 800Q217 498 430 285Q643 72 944 72Q1202 72 1399 231L1399 719L1489 719L1489 199Q1261-19 944-19Q889-19 837-13L835-29L834-35L835-35L832-75Q846-82 860-90Q920-129 928-184Q929-191 929-198Q929-243 886-276Q835-315 756-315Q722-315 692-308L703-253Q724-260 749-260Q794-260 823-237Q848-218 848-191L848-184Q843-152 808-129Q773-108 731-107L773-3Z"  horiz-adv-x="1620" vert-adv-y="2048"  />

      
      <glyph glyph-name="uni0123" unicode="&#x0123;" d="M1119 615Q1093 744 995 842Q862 975 674 975Q486 975 353 842Q220 709 220 521Q220 333 353 200Q486 67 674 67Q862 67 995 200Q1092 297 1119 425L1119 615M1117 195Q1092 163 1063 133Q902-28 674-28Q447-28 286 133Q125 294 125 521Q125 749 286 909.50Q447 1070 674 1070Q902 1070 1063 910Q1094 878 1120 843L1120 982L1210 982L1210 219Q1210-2 1053-159Q892-320 665-320Q437-320 276-159Q243-126 217-90L312-56Q327-74 344-91Q477-224 665-224Q852-224 985-91Q1106 30 1117 195M717 1311Q740 1306 757 1288Q784 1262 784 1224Q784 1187 757.50 1161Q731 1135 694 1135Q657 1135 630.50 1161Q604 1187 604 1224Q604 1245 611 1263L709 1461L774 1461L717 1311Z"  horiz-adv-x="1364" vert-adv-y="2048"  />

      
      <glyph glyph-name="uni0124" unicode="&#x0124;" d="M240 717L240 0L150 0L150 1600L240 1600L240 807L910 807L910 1600L1000 1600L1000 0L910 0L910 717L240 717M623 1942L861 1708L757 1708L571 1851L395 1708L290 1708L519 1942L623 1942Z"  horiz-adv-x="1150" vert-adv-y="2048"  />

      
      <glyph glyph-name="uni0125" unicode="&#x0125;" d="M150 1600L240 1600L240 931Q354 1041 514 1041Q688 1041 797 932Q906 823 909 657L909 0L819 0L819 649Q819 774 728.50 862.50Q638 951 514 951Q390 951 300 864Q260 824 240 781L240 0L150 0L150 1600M623 1942L861 1708L757 1708L571 1851L395 1708L290 1708L519 1942L623 1942Z"  horiz-adv-x="1059" vert-adv-y="2048"  />

      
      <glyph glyph-name="uni0126" unicode="&#x0126;" d="M995 1310L995 0L905 0L905 717L235 717L235 0L145 0L145 1310L70 1310L70 1400L145 1400L145 1600L235 1600L235 1400L905 1400L905 1600L995 1600L995 1400L1070 1400L1070 1310L995 1310M235 1310L235 807L905 807L905 1310L235 1310Z"  horiz-adv-x="1140" vert-adv-y="2048"  />

      
      <glyph glyph-name="uni0127" unicode="&#x0127;" d="M150 1373L150 1600L240 1600L240 1373L650 1373L650 1283L240 1283L240 931Q354 1041 514 1041Q688 1041 797 932Q906 823 909 657L909 0L819 0L819 649Q819 774 728.50 862.50Q638 951 514 951Q390 951 300 864Q260 824 240 781L240 0L150 0L150 1283L50 1283L50 1373L150 1373Z"  horiz-adv-x="1059" vert-adv-y="2048"  />

      
      <glyph glyph-name="uni0128" unicode="&#x0128;" d="M261 1600L261 0L171 0L171 1600L261 1600M210 1873Q285 1813 334 1813L339 1813Q389 1816 409 1897L478 1897Q457 1768 379 1745Q358 1739 337 1739Q280 1739 222 1785Q147 1844 98 1844L93 1844Q43 1841 23 1760L-47 1760Q-25 1889 53 1912Q74 1918 95 1918Q152 1918 210 1873Z"  horiz-adv-x="430" vert-adv-y="2048"  />

      
      <glyph glyph-name="uni0129" unicode="&#x0129;" d="M261 982L261 0L171 0L171 982L261 982M210 1255Q285 1195 334 1195L339 1195Q389 1198 409 1279L478 1279Q457 1150 379 1127Q358 1121 337 1121Q280 1121 222 1167Q147 1226 98 1226L93 1226Q43 1223 23 1142L-47 1142Q-25 1271 53 1294Q74 1300 95 1300Q152 1300 210 1255Z"  horiz-adv-x="430" vert-adv-y="2048"  />

      
      <glyph glyph-name="uni012A" unicode="&#x012A;" d="M260 1600L260 0L170 0L170 1600L260 1600M-80 1845L510 1845L510 1775L-80 1775L-80 1845Z"  horiz-adv-x="430" vert-adv-y="2048"  />

      
      <glyph glyph-name="uni012B" unicode="&#x012B;" d="M260 982L260 0L170 0L170 982L260 982M-80 1227L510 1227L510 1157L-80 1157L-80 1227Z"  horiz-adv-x="430" vert-adv-y="2048"  />

      
      <glyph glyph-name="uni012C" unicode="&#x012C;" d="M260 1600L260 0L170 0L170 1600L260 1600M54 1956Q62 1903 100 1865Q148 1817 216 1817Q283 1817 331 1865Q370 1903 377 1956L450 1956Q442 1873 382 1813Q314 1744 216 1744Q117 1744 49 1813Q-16 1879-20 1956L54 1956Z"  horiz-adv-x="430" vert-adv-y="2048"  />

      
      <glyph glyph-name="uni012D" unicode="&#x012D;" d="M260 982L260 0L170 0L170 982L260 982M54 1338Q62 1285 100 1247Q148 1199 216 1199Q283 1199 331 1247Q370 1285 377 1338L450 1338Q442 1255 382 1195Q314 1126 216 1126Q117 1126 49 1195Q-16 1261-20 1338L54 1338Z"  horiz-adv-x="430" vert-adv-y="2048"  />

      
      <glyph glyph-name="uni012E" unicode="&#x012E;" d="M170 10L170 1600L260 1600L260 0L223 0Q159-42 150-102Q148-120 148-136Q148-184 170-210Q200-246 250-246Q280-246 308-232L330-282Q274-305 219-305Q146-305 102-256Q67-217 67-160Q67-146 69-131Q80-52 170 10Z"  horiz-adv-x="430" vert-adv-y="2048"  />

      
      <glyph glyph-name="uni012F" unicode="&#x012F;" d="M215 1330Q252 1330 278.50 1304Q305 1278 305 1241Q305 1203 278.50 1177Q252 1151 215 1151Q178 1151 151.50 1177Q125 1203 125 1241Q125 1278 151.50 1304Q178 1330 215 1330M170 7L170 982L260 982L260 0L228 0Q164-42 155-102Q153-120 153-136Q153-184 175-210Q205-246 255-246Q285-246 313-232L335-282Q279-305 224-305Q151-305 107-256Q72-217 72-160Q72-146 74-131Q85-54 170 7Z"  horiz-adv-x="430" vert-adv-y="2048"  />

      
      <glyph glyph-name="uni0131" unicode="&#x0131;" d="M260 982L260 0L170 0L170 982L260 982Z"  horiz-adv-x="430" vert-adv-y="2048"  />

      
      <glyph glyph-name="uni0132" unicode="&#x0132;" d="M260 1600L260 0L170 0L170 1600L260 1600M1132 304Q1132 152 1052 72Q967-14 846-14Q725-14 640 71.50Q555 157 555 259L614 282Q634 174 699 120Q753 74 821 74Q833 74 846 76Q929 76 989 135Q1042 188 1042 314L1042 1600L1132 1600L1132 304Z"  horiz-adv-x="1287" vert-adv-y="2048"  />

      
      <glyph glyph-name="uni0133" unicode="&#x0133;" d="M260 982L260 0L170 0L170 982L260 982M215 1330Q252 1330 278.50 1304Q305 1278 305 1241Q305 1203 278.50 1177Q252 1151 215 1151Q178 1151 151.50 1177Q125 1203 125 1241Q125 1278 151.50 1304Q178 1330 215 1330M479-138Q600-124 600-2L600 982L690 982L690 0Q690-211 479-228L479-138M645 1330Q682 1330 708.50 1304Q735 1278 735 1241Q735 1203 708.50 1177Q682 1151 645 1151Q608 1151 581.50 1177Q555 1203 555 1241Q555 1278 581.50 1304Q608 1330 645 1330Z"  horiz-adv-x="885" vert-adv-y="2048"  />

      
      <glyph glyph-name="uni0134" unicode="&#x0134;" d="M702 304Q702 152 622 72Q537-14 416-14Q295-14 210 71.50Q125 157 125 259L184 282Q204 174 269 120Q323 74 391 74Q403 74 416 76Q499 76 559 135Q612 188 612 314L612 1600L702 1600L702 304M681 1942L919 1708L815 1708L629 1851L453 1708L348 1708L577 1942L681 1942Z"  horiz-adv-x="857" vert-adv-y="2048"  />

      
      <glyph glyph-name="uni0135" unicode="&#x0135;" d="M263 1324L501 1090L397 1090L211 1233L35 1090L-70 1090L159 1324L263 1324M49-138Q170-124 170-2L170 982L260 982L260 0Q260-211 49-228L49-138Z"  horiz-adv-x="430" vert-adv-y="2048"  />

      
      <glyph glyph-name="uni0136" unicode="&#x0136;" d="M862 1600L447 999L1146 0L1037 0L390 924L218 678L218 0L127 0L127 1600L218 1600L218 834L753 1600L862 1600M604-57Q689-57 722-83Q767-118 767-167L767-177Q761-232 698-279Q642-310 580-310Q545-310 507-300L526-242Q558-255 588-255Q623-255 656-238Q684-217 690-189Q691-183 691-177Q691-156 675-140Q655-121 604-120L604-57Z"  horiz-adv-x="1131" vert-adv-y="2048"  />

      
      <glyph glyph-name="uni0137" unicode="&#x0137;" d="M629 982L387 682L773 0L661 0L328 610L240 501L240 0L150 0L150 1400L240 1400L240 645L513 982L629 982M429-57Q514-57 546-83Q592-118 592-167L592-177Q586-232 523-279Q467-310 405-310Q370-310 331-300L351-242Q382-255 413-255Q448-255 481-238Q509-217 515-189Q516-183 516-177Q516-156 500-140Q480-121 429-120L429-57Z"  horiz-adv-x="823" vert-adv-y="2048"  />

      
      <glyph glyph-name="uni0138" unicode="&#x0138;" d="M629 982L387 682L773 0L661 0L328 610L240 501L240 0L150 0L150 982L240 982L240 645L513 982L629 982Z"  horiz-adv-x="823" vert-adv-y="2048"  />

      
      <glyph glyph-name="uni0139" unicode="&#x0139;" d="M127 0L127 1600L218 1600L218 90L827 90L827 0L127 0M697 1904L452 1717L368 1717L531 1904L697 1904Z"  horiz-adv-x="886" vert-adv-y="2048"  />

      
      <glyph glyph-name="uni013A" unicode="&#x013A;" d="M216 1600L216 0L126 0L126 1600L216 1600M335 1945L90 1758L6 1758L169 1945L335 1945Z"  horiz-adv-x="340" vert-adv-y="2048"  />

      
      <glyph glyph-name="uni013B" unicode="&#x013B;" d="M492 0L127 0L127 1600L218 1600L218 90L827 90L827 0L556 0L553-29L552-35L553-35L550-75Q564-82 578-90Q638-129 646-184Q647-191 647-198Q647-243 604-276Q553-315 474-315Q440-315 410-308L421-253Q442-260 467-260Q512-260 541-237Q566-218 566-191L566-184Q561-152 526-129Q491-108 449-107L492 0Z"  horiz-adv-x="886" vert-adv-y="2048"  />

      
      <glyph glyph-name="uni013C" unicode="&#x013C;" d="M152 0L127 0L127 1600L218 1600L218 0L216 0L213-29L212-35L213-35L210-75Q224-82 238-90Q298-129 306-184Q307-191 307-198Q307-243 264-276Q213-315 134-315Q100-315 70-308L81-253Q102-260 127-260Q172-260 201-237Q226-218 226-191L226-184Q221-152 186-129Q151-108 109-107L152 0Z"  horiz-adv-x="497" vert-adv-y="2048"  />

      
      <glyph glyph-name="uni013D" unicode="&#x013D;" d="M127 0L127 1600L218 1600L218 90L827 90L827 0L127 0M667 1435Q644 1439 627 1457Q600 1483 600 1522Q600 1559 626.50 1584.50Q653 1610 690 1610Q727 1610 753.50 1584.50Q780 1559 780 1522Q780 1500 773 1482L675 1284L610 1284L667 1435Z"  horiz-adv-x="886" vert-adv-y="2048"  />

      
      <glyph glyph-name="uni013E" unicode="&#x013E;" d="M218 1600L218 0L127 0L127 1600L218 1600M384 1435Q361 1439 344 1457Q317 1483 317 1522Q317 1559 343.50 1584.50Q370 1610 408 1610Q444 1610 470.50 1584.50Q497 1559 497 1522Q497 1500 490 1482L392 1284L327 1284L384 1435Z"  horiz-adv-x="497" vert-adv-y="2048"  />

      
      <glyph glyph-name="uni013F" unicode="&#x013F;" d="M127 0L127 1600L218 1600L218 90L827 90L827 0L127 0M706 876Q737 876 759.50 853.50Q782 831 782 800Q782 768 759.50 746Q737 724 706 724Q675 724 652 746Q629 768 629 800Q629 831 652 853.50Q675 876 706 876Z"  horiz-adv-x="886" vert-adv-y="2048"  />

      
      <glyph glyph-name="uni0140" unicode="&#x0140;" d="M203 1600L203 0L112 0L112 1600L203 1600M393 876Q423 876 445.50 853.50Q468 831 468 800Q468 768 445.50 746Q423 724 393 724Q361 724 338.50 746Q316 768 316 800Q316 831 338.50 853.50Q361 876 393 876Z"  horiz-adv-x="498" vert-adv-y="2048"  />

      
      <glyph glyph-name="uni0141" unicode="&#x0141;" d="M319 787L774 1157L774 1051L319 681L319 90L929 90L929 0L229 0L229 606L0 421L0 527L229 713L229 1600L319 1600L319 787Z"  horiz-adv-x="986" vert-adv-y="2048"  />

      
      <glyph glyph-name="uni0142" unicode="&#x0142;" d="M167 805L167 1600L258 1600L258 879L425 1016L425 910L258 773L258 0L167 0L167 699L0 562L0 669L167 805Z"  horiz-adv-x="425" vert-adv-y="2048"  />

      
      <glyph glyph-name="uni0143" unicode="&#x0143;" d="M150 1600L249 1600L1071 177L1071 1600L1161 1600L1161 0L1071 0L240 1437L240 0L150 0L150 1600M875 2005L630 1818L546 1818L709 2005L875 2005Z"  horiz-adv-x="1311" vert-adv-y="2048"  />

      
      </font>
</defs>
</svg>
